<?xml version="1.0" encoding="UTF-8"?>
<!DOCTYPE svg PUBLIC "-//W3C//DTD SVG 1.1//EN" "http://www.w3.org/Graphics/SVG/1.1/DTD/svg11.dtd">
<svg xmlns="http://www.w3.org/2000/svg" version="1.1" width="1298px" height="709px" style="shape-rendering:geometricPrecision; text-rendering:geometricPrecision; image-rendering:optimizeQuality; fill-rule:evenodd; clip-rule:evenodd" xmlns:xlink="http://www.w3.org/1999/xlink">
<g><path style="opacity:1" fill="#fefefe" d="M -0.5,-0.5 C 432.167,-0.5 864.833,-0.5 1297.5,-0.5C 1297.5,235.833 1297.5,472.167 1297.5,708.5C 864.833,708.5 432.167,708.5 -0.5,708.5C -0.5,472.167 -0.5,235.833 -0.5,-0.5 Z"/></g>
<g><path style="opacity:1" fill="#e31936" d="M 456.5,236.5 C 456.782,237.778 457.449,238.778 458.5,239.5C 450.493,239.334 442.493,239.5 434.5,240C 478.123,255.376 505.623,285.543 517,330.5C 524.528,382.582 507.028,423.748 464.5,454C 455.118,459.857 445.118,464.357 434.5,467.5C 437.768,468.487 441.102,468.82 444.5,468.5C 446.158,469.181 447.825,470.015 449.5,471C 444.845,471.499 440.179,471.666 435.5,471.5C 423.322,470.533 411.155,470.866 399,472.5C 348.142,469.412 312.142,444.745 291,398.5C 273.02,346.59 283.853,301.757 323.5,264C 352.534,240.107 385.7,231.273 423,237.5C 434.185,235.548 445.352,235.214 456.5,236.5 Z"/></g>
<g><path style="opacity:1" fill="#f8c5d0" d="M 420.5,239.5 C 421.568,238.566 422.901,238.232 424.5,238.5C 424.833,315.668 424.499,392.668 423.5,469.5C 423.5,392.833 423.5,316.167 423.5,239.5C 422.5,239.5 421.5,239.5 420.5,239.5 Z"/></g>
<g><path style="opacity:1" fill="#fefefe" d="M 420.5,239.5 C 421.5,239.5 422.5,239.5 423.5,239.5C 423.5,316.167 423.5,392.833 423.5,469.5C 380.714,458.885 351.547,432.885 336,391.5C 320.839,334.975 336.672,289.475 383.5,255C 394.901,247.634 407.234,242.467 420.5,239.5 Z"/></g>
<g><path style="opacity:1" fill="#fefcfc" d="M 458.5,239.5 C 516.133,248.899 550.633,282.232 562,339.5C 565.323,396.724 541.157,437.224 489.5,461C 475.046,466.663 460.046,469.163 444.5,468.5C 441.102,468.82 437.768,468.487 434.5,467.5C 445.118,464.357 455.118,459.857 464.5,454C 507.028,423.748 524.528,382.582 517,330.5C 505.623,285.543 478.123,255.376 434.5,240C 442.493,239.5 450.493,239.334 458.5,239.5 Z"/></g>
<g><path style="opacity:1" fill="#e52d43" d="M 456.5,236.5 C 498.178,240.079 529.678,259.745 551,295.5C 574.131,341.518 570.798,385.518 541,427.5C 513.397,460.42 478.23,475.087 435.5,471.5C 440.179,471.666 444.845,471.499 449.5,471C 447.825,470.015 446.158,469.181 444.5,468.5C 460.046,469.163 475.046,466.663 489.5,461C 541.157,437.224 565.323,396.724 562,339.5C 550.633,282.232 516.133,248.899 458.5,239.5C 457.449,238.778 456.782,237.778 456.5,236.5 Z"/></g>
<g><path style="opacity:1" fill="#9f9fa0" d="M 892.5,322.5 C 902.653,321.506 912.986,321.172 923.5,321.5C 923.5,316.5 923.5,311.5 923.5,306.5C 896.5,306.5 869.5,306.5 842.5,306.5C 842.5,311.5 842.5,316.5 842.5,321.5C 853.014,321.172 863.347,321.506 873.5,322.5C 862.833,322.5 852.167,322.5 841.5,322.5C 841.5,316.833 841.5,311.167 841.5,305.5C 869.167,305.5 896.833,305.5 924.5,305.5C 924.5,311.167 924.5,316.833 924.5,322.5C 913.833,322.5 903.167,322.5 892.5,322.5 Z"/></g>
<g><path style="opacity:1" fill="#b2b2b3" d="M 1014.5,306.5 C 1008.5,306.5 1002.5,306.5 996.5,306.5C 996.831,331.339 996.498,356.006 995.5,380.5C 995.5,355.5 995.5,330.5 995.5,305.5C 1002.02,305.177 1008.36,305.51 1014.5,306.5 Z"/></g>
<g><path style="opacity:1" fill="#b4b4b5" d="M 720.5,306.5 C 725.305,305.513 730.305,305.179 735.5,305.5C 735.832,338.004 735.498,370.338 734.5,402.5C 734.5,402.167 734.5,401.833 734.5,401.5C 734.5,369.833 734.5,338.167 734.5,306.5C 729.833,306.5 725.167,306.5 720.5,306.5 Z"/></g>
<g><path style="opacity:1" fill="#717074" d="M 720.5,306.5 C 725.167,306.5 729.833,306.5 734.5,306.5C 734.5,338.167 734.5,369.833 734.5,401.5C 728.833,401.5 723.167,401.5 717.5,401.5C 717.667,384.83 717.5,368.163 717,351.5C 716.283,352.044 715.783,352.711 715.5,353.5C 709.062,369.713 702.062,385.713 694.5,401.5C 691.167,402.833 687.833,402.833 684.5,401.5C 677.35,385.197 670.184,368.864 663,352.5C 662.5,369.163 662.333,385.83 662.5,402.5C 656.5,402.5 650.5,402.5 644.5,402.5C 644.5,370.167 644.5,337.833 644.5,305.5C 649.43,305.197 654.263,305.531 659,306.5C 669.35,328.531 679.683,350.531 690,372.5C 699.907,350.354 710.074,328.354 720.5,306.5 Z"/></g>
<g><path style="opacity:1" fill="#969696" d="M 824.5,306.5 C 802.833,306.5 781.167,306.5 759.5,306.5C 759.5,338.167 759.5,369.833 759.5,401.5C 781.5,401.5 803.5,401.5 825.5,401.5C 825.5,396.167 825.5,390.833 825.5,385.5C 826.489,390.975 826.822,396.642 826.5,402.5C 803.833,402.5 781.167,402.5 758.5,402.5C 758.5,370.167 758.5,337.833 758.5,305.5C 780.673,305.169 802.673,305.503 824.5,306.5 Z"/></g>
<g><path style="opacity:1" fill="#707074" d="M 824.5,306.5 C 824.5,311.5 824.5,316.5 824.5,321.5C 808.833,321.5 793.167,321.5 777.5,321.5C 777.5,329.5 777.5,337.5 777.5,345.5C 789.5,345.5 801.5,345.5 813.5,345.5C 813.5,350.5 813.5,355.5 813.5,360.5C 801.5,360.5 789.5,360.5 777.5,360.5C 777.5,368.833 777.5,377.167 777.5,385.5C 793.5,385.5 809.5,385.5 825.5,385.5C 825.5,390.833 825.5,396.167 825.5,401.5C 803.5,401.5 781.5,401.5 759.5,401.5C 759.5,369.833 759.5,338.167 759.5,306.5C 781.167,306.5 802.833,306.5 824.5,306.5 Z"/></g>
<g><path style="opacity:1" fill="#707074" d="M 995.5,380.5 C 996.498,356.006 996.831,331.339 996.5,306.5C 1002.5,306.5 1008.5,306.5 1014.5,306.5C 1014.67,333.835 1014.5,361.169 1014,388.5C 1012.01,393.995 1008.51,398.161 1003.5,401C 994.738,402.124 985.905,402.624 977,402.5C 969.167,402.333 961.333,402.167 953.5,402C 948.08,400.212 944.247,396.712 942,391.5C 940.525,362.897 940.025,334.23 940.5,305.5C 946.5,305.5 952.5,305.5 958.5,305.5C 958.027,331.564 958.527,357.564 960,383.5C 960.75,384.126 961.584,384.626 962.5,385C 972.5,385.667 982.5,385.667 992.5,385C 994.141,383.871 995.141,382.371 995.5,380.5 Z"/></g>
<g><path style="opacity:1" fill="#707073" d="M 892.5,322.5 C 892.5,348.833 892.5,375.167 892.5,401.5C 886.5,401.5 880.5,401.5 874.5,401.5C 874.831,374.995 874.498,348.661 873.5,322.5C 863.347,321.506 853.014,321.172 842.5,321.5C 842.5,316.5 842.5,311.5 842.5,306.5C 869.5,306.5 896.5,306.5 923.5,306.5C 923.5,311.5 923.5,316.5 923.5,321.5C 912.986,321.172 902.653,321.506 892.5,322.5 Z"/></g>
<g><path style="opacity:1" fill="#959595" d="M 873.5,322.5 C 874.498,348.661 874.831,374.995 874.5,401.5C 880.5,401.5 886.5,401.5 892.5,401.5C 886.355,402.49 880.022,402.823 873.5,402.5C 873.5,375.833 873.5,349.167 873.5,322.5 Z"/></g>
<g><path style="opacity:1" fill="#949496" d="M 734.5,401.5 C 734.5,401.833 734.5,402.167 734.5,402.5C 728.5,402.5 722.5,402.5 716.5,402.5C 716.83,385.991 716.496,369.658 715.5,353.5C 715.783,352.711 716.283,352.044 717,351.5C 717.5,368.163 717.667,384.83 717.5,401.5C 723.167,401.5 728.833,401.5 734.5,401.5 Z"/></g>
</svg>
