<?xml version="1.0" encoding="UTF-8"?>
<!DOCTYPE svg PUBLIC "-//W3C//DTD SVG 1.1//EN" "http://www.w3.org/Graphics/SVG/1.1/DTD/svg11.dtd">
<svg xmlns="http://www.w3.org/2000/svg" version="1.1" width="400px" height="200px" style="shape-rendering:geometricPrecision; text-rendering:geometricPrecision; image-rendering:optimizeQuality; fill-rule:evenodd; clip-rule:evenodd" xmlns:xlink="http://www.w3.org/1999/xlink">
<g><path style="opacity:1" fill="#04aeef" d="M 99.5,-0.5 C 166.167,-0.5 232.833,-0.5 299.5,-0.5C 299.5,66.1667 299.5,132.833 299.5,199.5C 232.833,199.5 166.167,199.5 99.5,199.5C 99.5,132.833 99.5,66.1667 99.5,-0.5 Z"/></g>
<g><path style="opacity:1" fill="#f7fcfe" d="M 224.5,57.5 C 226.5,57.5 228.5,57.5 230.5,57.5C 230.5,58.8333 230.5,60.1667 230.5,61.5C 225.094,60.7353 223.094,63.0687 224.5,68.5C 226.167,68.5 227.833,68.5 229.5,68.5C 229.5,69.5 229.5,70.5 229.5,71.5C 227.833,71.5 226.167,71.5 224.5,71.5C 224.5,77.8333 224.5,84.1667 224.5,90.5C 223.167,90.5 221.833,90.5 220.5,90.5C 220.5,84.1667 220.5,77.8333 220.5,71.5C 219.167,71.5 217.833,71.5 216.5,71.5C 216.5,70.5 216.5,69.5 216.5,68.5C 217.833,68.5 219.167,68.5 220.5,68.5C 219.656,63.8619 220.989,60.1953 224.5,57.5 Z"/></g>
<g><path style="opacity:1" fill="#edf9fd" d="M 167.5,58.5 C 169.167,58.5 170.833,58.5 172.5,58.5C 172.5,60.1667 172.5,61.8333 172.5,63.5C 170.833,63.5 169.167,63.5 167.5,63.5C 167.5,61.8333 167.5,60.1667 167.5,58.5 Z"/></g>
<g><path style="opacity:1" fill="#8fd9f7" d="M 250.5,58.5 C 251.654,60.8035 253.321,61.1368 255.5,59.5C 256.713,59.7472 257.38,60.4138 257.5,61.5C 257.389,62.1174 257.056,62.6174 256.5,63C 258.134,63.4935 259.801,63.6602 261.5,63.5C 261.738,67.0993 260.738,67.4327 258.5,64.5C 257.5,64.8333 256.833,65.5 256.5,66.5C 257.602,67.1757 258.602,67.8423 259.5,68.5C 258.178,68.33 257.011,68.6634 256,69.5C 255.51,68.2068 255.343,66.8734 255.5,65.5C 255.657,64.1266 255.49,62.7932 255,61.5C 254.667,61.8333 254.333,62.1667 254,62.5C 252.275,61.536 250.441,60.8693 248.5,60.5C 248.833,59.5 249.5,58.8333 250.5,58.5 Z"/></g>
<g><path style="opacity:1" fill="#bee9fa" d="M 262.5,59.5 C 260.887,59.9443 259.72,60.9443 259,62.5C 258.617,61.944 258.117,61.6107 257.5,61.5C 257.38,60.4138 256.713,59.7472 255.5,59.5C 253.321,61.1368 251.654,60.8035 250.5,58.5C 254.794,56.8744 258.794,57.2077 262.5,59.5 Z"/></g>
<g><path style="opacity:1" fill="#f5fbfe" d="M 254.5,65.5 C 254.431,69.6466 252.431,72.3133 248.5,73.5C 249.309,75.0709 249.643,76.7376 249.5,78.5C 251.604,78.2011 253.604,78.5344 255.5,79.5C 252.344,80.3838 249.344,81.3838 246.5,82.5C 244.074,79.9875 242.408,76.9875 241.5,73.5C 241.232,71.901 241.566,70.5676 242.5,69.5C 242.389,71.6477 243.056,71.981 244.5,70.5C 244.973,62.3005 248.306,60.6338 254.5,65.5 Z"/></g>
<g><path style="opacity:1" fill="#8cd5f6" d="M 264.5,60.5 C 267.261,61.5935 268.927,63.5935 269.5,66.5C 267.795,65.9119 266.128,65.5786 264.5,65.5C 263.833,64.5 263.167,63.5 262.5,62.5C 263.243,61.8182 263.909,61.1515 264.5,60.5 Z"/></g>
<g><path style="opacity:1" fill="#2fb5f0" d="M 254.5,65.5 C 254.833,65.5 255.167,65.5 255.5,65.5C 255.343,66.8734 255.51,68.2068 256,69.5C 257.011,68.6634 258.178,68.33 259.5,68.5C 258.713,70.1042 257.38,70.7709 255.5,70.5C 255.481,72.0603 255.148,73.5603 254.5,75C 259.293,80.5834 257.96,83.4168 250.5,83.5C 249.041,83.5674 247.708,83.2341 246.5,82.5C 249.344,81.3838 252.344,80.3838 255.5,79.5C 253.604,78.5344 251.604,78.2011 249.5,78.5C 249.643,76.7376 249.309,75.0709 248.5,73.5C 252.431,72.3133 254.431,69.6466 254.5,65.5 Z"/></g>
<g><path style="opacity:1" fill="#c1e9fa" d="M 239.5,69.5 C 238.778,69.0825 238.278,68.4158 238,67.5C 237.04,71.0559 236.54,74.3892 236.5,77.5C 233.904,71.4304 235.07,66.0971 240,61.5C 240.684,62.7839 240.517,63.9505 239.5,65C 240.308,65.3076 240.975,65.8076 241.5,66.5C 240.807,67.5178 240.141,68.5178 239.5,69.5 Z"/></g>
<g><path style="opacity:1" fill="#44bdf1" d="M 262.5,59.5 C 263.492,59.3284 264.158,59.6618 264.5,60.5C 263.909,61.1515 263.243,61.8182 262.5,62.5C 263.167,63.5 263.833,64.5 264.5,65.5C 266.128,65.5786 267.795,65.9119 269.5,66.5C 269.768,68.099 269.434,69.4324 268.5,70.5C 266.056,67.5437 263.056,66.877 259.5,68.5C 258.602,67.8423 257.602,67.1757 256.5,66.5C 256.833,65.5 257.5,64.8333 258.5,64.5C 260.738,67.4327 261.738,67.0993 261.5,63.5C 259.801,63.6602 258.134,63.4935 256.5,63C 257.056,62.6174 257.389,62.1174 257.5,61.5C 258.117,61.6107 258.617,61.944 259,62.5C 259.72,60.9443 260.887,59.9443 262.5,59.5 Z"/></g>
<g><path style="opacity:1" fill="#bbe7fa" d="M 276.5,72.5 C 275.698,71.0484 275.198,69.3817 275,67.5C 274.658,69.6192 273.825,69.9526 272.5,68.5C 271.972,67.2794 271.305,66.1127 270.5,65C 271.667,64.5 272.5,63.6667 273,62.5C 276.118,65.0704 277.285,68.4037 276.5,72.5 Z"/></g>
<g><path style="opacity:1" fill="#5ac4f3" d="M 248.5,60.5 C 250.441,60.8693 252.275,61.536 254,62.5C 254.333,62.1667 254.667,61.8333 255,61.5C 255.49,62.7932 255.657,64.1266 255.5,65.5C 255.167,65.5 254.833,65.5 254.5,65.5C 248.306,60.6338 244.973,62.3005 244.5,70.5C 243.056,71.981 242.389,71.6477 242.5,69.5C 242.771,68.4481 242.938,67.1147 243,65.5C 244.076,62.921 245.909,61.2543 248.5,60.5 Z"/></g>
<g><path style="opacity:1" fill="#f9fdfe" d="M 268.5,70.5 C 270.213,75.4091 268.546,78.4091 263.5,79.5C 263.629,81.2161 263.962,82.8828 264.5,84.5C 259.672,86.7482 254.672,87.0815 249.5,85.5C 249.833,84.8333 250.167,84.1667 250.5,83.5C 257.96,83.4168 259.293,80.5834 254.5,75C 255.148,73.5603 255.481,72.0603 255.5,70.5C 257.38,70.7709 258.713,70.1042 259.5,68.5C 263.056,66.877 266.056,67.5437 268.5,70.5 Z"/></g>
<g><path style="opacity:1" fill="#fafdfe" d="M 121.5,68.5 C 122.833,68.5 124.167,68.5 125.5,68.5C 125.334,73.8437 125.501,79.1771 126,84.5C 127.816,88.6632 130.649,89.4965 134.5,87C 135.191,85.9326 135.691,84.7659 136,83.5C 136.499,78.5111 136.666,73.5111 136.5,68.5C 137.833,68.5 139.167,68.5 140.5,68.5C 140.5,75.8333 140.5,83.1667 140.5,90.5C 138.549,90.7733 137.049,90.1066 136,88.5C 131.591,92.3927 127.258,92.3927 123,88.5C 121.623,81.9236 121.123,75.2569 121.5,68.5 Z"/></g>
<g><path style="opacity:1" fill="#e2f5fc" d="M 153.5,67.5 C 157.987,67.1606 161.487,68.8273 164,72.5C 164.499,78.4908 164.666,84.4908 164.5,90.5C 162.833,90.5 161.167,90.5 159.5,90.5C 159.666,84.4908 159.499,78.4908 159,72.5C 155.76,70.9637 152.76,71.297 150,73.5C 149.501,79.1569 149.334,84.8236 149.5,90.5C 147.833,90.5 146.167,90.5 144.5,90.5C 144.5,83.1667 144.5,75.8333 144.5,68.5C 145.833,68.5 147.167,68.5 148.5,68.5C 148.351,69.552 148.517,70.552 149,71.5C 150.397,69.9297 151.897,68.5964 153.5,67.5 Z"/></g>
<g><path style="opacity:1" fill="#f2fafe" d="M 168.5,68.5 C 169.833,68.5 171.167,68.5 172.5,68.5C 172.5,75.8333 172.5,83.1667 172.5,90.5C 171.167,90.5 169.833,90.5 168.5,90.5C 168.5,83.1667 168.5,75.8333 168.5,68.5 Z"/></g>
<g><path style="opacity:1" fill="#f2fafe" d="M 182.5,67.5 C 189,66.6218 192.667,69.2885 193.5,75.5C 192.167,75.5 190.833,75.5 189.5,75.5C 189.348,71.5134 187.348,70.0134 183.5,71C 178.176,76.7115 178.176,82.3781 183.5,88C 187.348,88.9866 189.348,87.4866 189.5,83.5C 190.833,83.5 192.167,83.5 193.5,83.5C 193.601,87.5753 191.601,90.0753 187.5,91C 181.48,91.904 177.646,89.404 176,83.5C 174.062,76.3891 176.229,71.0558 182.5,67.5 Z"/></g>
<g><path style="opacity:1" fill="#f2fafe" d="M 203.5,67.5 C 212.34,67.341 216.34,71.6743 215.5,80.5C 210.5,80.5 205.5,80.5 200.5,80.5C 200.206,86.3771 202.872,88.8771 208.5,88C 209.743,86.8455 210.743,85.5122 211.5,84C 212.944,83.2195 214.277,83.3861 215.5,84.5C 212.978,90.1796 208.644,92.3463 202.5,91C 200.714,90.2155 199.214,89.0488 198,87.5C 196.455,82.9534 196.121,78.2867 197,73.5C 198.494,70.6865 200.66,68.6865 203.5,67.5 Z"/></g>
<g><path style="opacity:1" fill="#22b3ef" d="M 204.5,70.5 C 209.212,70.5448 211.545,72.8781 211.5,77.5C 207.833,77.5 204.167,77.5 200.5,77.5C 200.571,74.3477 201.905,72.0144 204.5,70.5 Z"/></g>
<g><path style="opacity:1" fill="#eef9fd" d="M 239.5,69.5 C 240.404,70.209 240.737,71.209 240.5,72.5C 239.662,72.8417 239.328,73.5084 239.5,74.5C 238.506,73.0011 238.506,71.3344 239.5,69.5 Z"/></g>
<g><path style="opacity:1" fill="#9eddf8" d="M 239.5,69.5 C 238.506,71.3344 238.506,73.0011 239.5,74.5C 240.833,76.5 240.833,78.5 239.5,80.5C 238.395,79.3995 237.062,78.7329 235.5,78.5C 235.5,77.8333 235.833,77.5 236.5,77.5C 236.54,74.3892 237.04,71.0559 238,67.5C 238.278,68.4158 238.778,69.0825 239.5,69.5 Z"/></g>
<g><path style="opacity:1" fill="#69cbf4" d="M 269.5,66.5 C 270.158,67.3984 270.824,68.3984 271.5,69.5C 272.107,69.3764 272.44,69.0431 272.5,68.5C 273.825,69.9526 274.658,69.6192 275,67.5C 275.198,69.3817 275.698,71.0484 276.5,72.5C 276.123,74.258 275.456,75.9246 274.5,77.5C 274.624,78.1067 274.957,78.44 275.5,78.5C 275.167,79.5 274.5,80.1667 273.5,80.5C 272.375,81.6522 272.375,82.6522 273.5,83.5C 273.5,83.8333 273.5,84.1667 273.5,84.5C 271.364,85.4026 269.364,86.5693 267.5,88C 268.094,88.4643 268.761,88.631 269.5,88.5C 269.672,89.4916 269.338,90.1583 268.5,90.5C 267.602,89.8423 266.602,89.1757 265.5,88.5C 266.167,87.5 266.833,86.5 267.5,85.5C 267.043,84.7025 266.376,84.3691 265.5,84.5C 265.167,84.5 264.833,84.5 264.5,84.5C 263.962,82.8828 263.629,81.2161 263.5,79.5C 268.546,78.4091 270.213,75.4091 268.5,70.5C 269.434,69.4324 269.768,68.099 269.5,66.5 Z"/></g>
<g><path style="opacity:1" fill="#eaf8fd" d="M 276.5,72.5 C 277.808,74.6381 277.475,76.6381 275.5,78.5C 274.957,78.44 274.624,78.1067 274.5,77.5C 275.456,75.9246 276.123,74.258 276.5,72.5 Z"/></g>
<g><path style="opacity:1" fill="#d5f0fc" d="M 273.5,80.5 C 271.26,78.136 271.26,75.8026 273.5,73.5C 272.573,69.555 272.906,69.555 274.5,73.5C 273.777,75.7822 273.443,78.1155 273.5,80.5 Z"/></g>
<g><path style="opacity:1" fill="#f5fbfe" d="M 270.5,78.5 C 271.874,80.5167 271.707,82.5167 270,84.5C 269.51,82.4546 269.677,80.4546 270.5,78.5 Z"/></g>
<g><path style="opacity:1" fill="#e8f7fd" d="M 275.5,78.5 C 276.349,80.5101 275.682,82.1767 273.5,83.5C 272.375,82.6522 272.375,81.6522 273.5,80.5C 274.5,80.1667 275.167,79.5 275.5,78.5 Z"/></g>
<g><path style="opacity:1" fill="#e5f6fc" d="M 235.5,78.5 C 237.062,78.7329 238.395,79.3995 239.5,80.5C 240.116,81.7978 240.116,82.7978 239.5,83.5C 237.457,82.4206 236.124,80.754 235.5,78.5 Z"/></g>
<g><path style="opacity:1" fill="#72cef5" d="M 240.5,72.5 C 240.5,73.1667 240.833,73.5 241.5,73.5C 242.408,76.9875 244.074,79.9875 246.5,82.5C 247.708,83.2341 249.041,83.5674 250.5,83.5C 250.167,84.1667 249.833,84.8333 249.5,85.5C 248.833,85.5 248.5,85.8333 248.5,86.5C 247.206,85.7101 246.039,84.7101 245,83.5C 244.805,84.8193 244.972,86.1526 245.5,87.5C 243.5,86.5 241.5,85.5 239.5,84.5C 239.5,84.1667 239.5,83.8333 239.5,83.5C 240.116,82.7978 240.116,81.7978 239.5,80.5C 240.833,78.5 240.833,76.5 239.5,74.5C 239.328,73.5084 239.662,72.8417 240.5,72.5 Z"/></g>
<g><path style="opacity:1" fill="#f6fbfe" d="M 241.5,78.5 C 242.905,80.2251 243.405,82.2251 243,84.5C 241.681,82.7505 241.181,80.7505 241.5,78.5 Z"/></g>
<g><path style="opacity:1" fill="#edf8fd" d="M 239.5,84.5 C 241.5,85.5 243.5,86.5 245.5,87.5C 242.589,89.0083 240.256,88.175 238.5,85C 238.728,84.6012 239.062,84.4346 239.5,84.5 Z"/></g>
<g><path style="opacity:1" fill="#4ebef2" d="M 264.5,84.5 C 264.833,84.5 265.167,84.5 265.5,84.5C 264.464,87.1941 262.464,88.6941 259.5,89C 261.594,90.3515 263.927,90.8515 266.5,90.5C 264.708,91.3091 262.708,91.8091 260.5,92C 261.711,92.8928 261.711,93.7261 260.5,94.5C 259.081,93.9953 258.415,92.9953 258.5,91.5C 258.38,90.4138 257.713,89.7472 256.5,89.5C 254.582,89.8614 254.249,90.528 255.5,91.5C 255.44,92.0431 255.107,92.3764 254.5,92.5C 253.818,91.7573 253.151,91.0906 252.5,90.5C 251.467,88.9145 250.134,87.5812 248.5,86.5C 248.5,85.8333 248.833,85.5 249.5,85.5C 254.672,87.0815 259.672,86.7482 264.5,84.5 Z"/></g>
<g><path style="opacity:1" fill="#eef9fd" d="M 273.5,84.5 C 273.938,84.4346 274.272,84.6012 274.5,85C 273.211,86.8022 271.544,87.9688 269.5,88.5C 268.761,88.631 268.094,88.4643 267.5,88C 269.364,86.5693 271.364,85.4026 273.5,84.5 Z"/></g>
<g><path style="opacity:1" fill="#d8f2fc" d="M 248.5,86.5 C 250.134,87.5812 251.467,88.9145 252.5,90.5C 249.813,90.6641 247.146,90.4974 244.5,90C 247.402,89.0814 247.735,88.2481 245.5,87.5C 244.972,86.1526 244.805,84.8193 245,83.5C 246.039,84.7101 247.206,85.7101 248.5,86.5 Z"/></g>
<g><path style="opacity:1" fill="#d8f2fc" d="M 265.5,84.5 C 266.376,84.3691 267.043,84.7025 267.5,85.5C 266.833,86.5 266.167,87.5 265.5,88.5C 266.602,89.1757 267.602,89.8423 268.5,90.5C 267.833,90.5 267.167,90.5 266.5,90.5C 263.927,90.8515 261.594,90.3515 259.5,89C 262.464,88.6941 264.464,87.1941 265.5,84.5 Z"/></g>
<g><path style="opacity:1" fill="#beeafa" d="M 258.5,91.5 C 257.5,91.5 256.5,91.5 255.5,91.5C 254.249,90.528 254.582,89.8614 256.5,89.5C 257.713,89.7472 258.38,90.4138 258.5,91.5 Z"/></g>
<g><path style="opacity:1" fill="#6ecaf4" d="M 121.5,105.5 C 173.171,105.167 224.838,105.5 276.5,106.5C 250.667,106.833 224.833,107.167 199,107.5C 172.825,107.5 146.991,106.833 121.5,105.5 Z"/></g>
<g><path style="opacity:1" fill="#fdfefe" d="M 121.5,123.5 C 122.209,122.596 123.209,122.263 124.5,122.5C 124.5,120.833 124.5,119.167 124.5,117.5C 125.314,115.727 126.648,115.227 128.5,116C 125.855,117.287 124.855,119.453 125.5,122.5C 129.5,122.833 129.5,123.167 125.5,123.5C 125.167,139.5 124.833,139.5 124.5,123.5C 123.5,123.5 122.5,123.5 121.5,123.5 Z"/></g>
<g><path style="opacity:1" fill="#91dbf7" d="M 242.5,116.5 C 241.167,122.833 241.167,129.167 242.5,135.5C 242.44,136.043 242.107,136.376 241.5,136.5C 240.167,129.5 240.167,122.5 241.5,115.5C 242.107,115.624 242.44,115.957 242.5,116.5 Z"/></g>
<g><path style="opacity:1" fill="#f4fbfe" d="M 242.5,116.5 C 242.337,118.857 242.503,121.19 243,123.5C 246.258,120.654 249.092,120.987 251.5,124.5C 251.665,128.182 251.499,131.848 251,135.5C 250.823,131.644 250.323,127.977 249.5,124.5C 247.183,123.058 245.016,123.392 243,125.5C 242.502,128.817 242.335,132.15 242.5,135.5C 241.167,129.167 241.167,122.833 242.5,116.5 Z"/></g>
<g><path style="opacity:1" fill="#def3fc" d="M 254.5,115.5 C 256.337,115.639 256.67,116.306 255.5,117.5C 254.702,117.043 254.369,116.376 254.5,115.5 Z"/></g>
<g><path style="opacity:1" fill="#e0f5fc" d="M 259.5,115.5 C 260.82,118.428 261.486,121.761 261.5,125.5C 261.167,128.833 260.833,132.167 260.5,135.5C 259.503,128.866 259.17,122.2 259.5,115.5 Z"/></g>
<g><path style="opacity:1" fill="#b9e8fa" d="M 274.5,116.5 C 274.56,115.957 274.893,115.624 275.5,115.5C 276.833,122.5 276.833,129.5 275.5,136.5C 274.702,136.043 274.369,135.376 274.5,134.5C 275.833,128.5 275.833,122.5 274.5,116.5 Z"/></g>
<g><path style="opacity:1" fill="#7fd5f6" d="M 124.5,117.5 C 124.5,119.167 124.5,120.833 124.5,122.5C 123.209,122.263 122.209,122.596 121.5,123.5C 120.957,123.44 120.624,123.107 120.5,122.5C 121.325,121.614 122.325,121.281 123.5,121.5C 123.232,119.901 123.566,118.568 124.5,117.5 Z"/></g>
<g><path style="opacity:1" fill="#f1fafe" d="M 146.5,135.5 C 145.167,131.167 145.167,126.833 146.5,122.5C 147.838,121.816 149.504,121.816 151.5,122.5C 149.807,123.228 148.307,124.228 147,125.5C 146.502,128.817 146.335,132.15 146.5,135.5 Z"/></g>
<g><path style="opacity:1" fill="#edf9fd" d="M 199.5,122.5 C 200.391,123.11 201.391,123.443 202.5,123.5C 201.894,127.459 201.227,131.459 200.5,135.5C 199.508,131.217 199.174,126.884 199.5,122.5 Z"/></g>
<g><path style="opacity:1" fill="#b8e7fa" d="M 199.5,122.5 C 200.902,122.264 202.402,121.93 204,121.5C 204.5,121.833 205,122.167 205.5,122.5C 204.675,123.386 203.675,123.719 202.5,123.5C 201.391,123.443 200.391,123.11 199.5,122.5 Z"/></g>
<g><path style="opacity:1" fill="#cbedfb" d="M 254.5,121.5 C 255.809,123.571 256.475,126.071 256.5,129C 256.167,131.5 255.833,134 255.5,136.5C 254.506,131.544 254.173,126.544 254.5,121.5 Z"/></g>
<g><path style="opacity:1" fill="#e7f7fd" d="M 133.5,121.5 C 140.771,121.036 143.604,124.369 142,131.5C 140.274,136.214 137.108,137.547 132.5,135.5C 128.248,130.388 128.581,125.722 133.5,121.5 Z"/></g>
<g><path style="opacity:1" fill="#16b0ef" d="M 133.5,123.5 C 139.997,123.18 142.164,126.18 140,132.5C 132.962,135.813 130.295,133.479 132,125.5C 132.717,124.956 133.217,124.289 133.5,123.5 Z"/></g>
<g><path style="opacity:1" fill="#91dbf7" d="M 146.5,122.5 C 145.167,126.833 145.167,131.167 146.5,135.5C 146.44,136.043 146.107,136.376 145.5,136.5C 144.167,131.5 144.167,126.5 145.5,121.5C 146.107,121.624 146.44,121.957 146.5,122.5 Z"/></g>
<g><path style="opacity:1" fill="#e7f6fd" d="M 230.5,121.5 C 234.271,120.774 236.937,122.107 238.5,125.5C 238.167,125.833 237.833,126.167 237.5,126.5C 234.574,122.538 231.741,122.538 229,126.5C 227.641,132.343 229.808,134.843 235.5,134C 236.047,133.075 236.713,132.242 237.5,131.5C 238.443,133.47 237.776,134.97 235.5,136C 232.364,137.041 229.864,136.207 228,133.5C 226.773,128.938 227.607,124.938 230.5,121.5 Z"/></g>
<g><path style="opacity:1" fill="#5bc8f4" d="M 249.5,124.5 C 250.323,127.977 250.823,131.644 251,135.5C 251.499,131.848 251.665,128.182 251.5,124.5C 252.483,128.298 252.817,132.298 252.5,136.5C 251.5,136.5 250.5,136.5 249.5,136.5C 249.5,132.5 249.5,128.5 249.5,124.5 Z"/></g>
<g><path style="opacity:1" fill="#ddf3fc" d="M 161.5,121.5 C 167.639,120.726 170.639,123.392 170.5,129.5C 166.833,129.5 163.167,129.5 159.5,129.5C 159.822,133.976 162.156,135.476 166.5,134C 169.23,130.541 169.896,130.874 168.5,135C 160.44,137.284 156.94,134.117 158,125.5C 159.376,124.295 160.542,122.962 161.5,121.5 Z"/></g>
<g><path style="opacity:1" fill="#0eb0ef" d="M 161.5,123.5 C 164.596,122.907 166.929,123.907 168.5,126.5C 165.914,127.48 163.247,127.813 160.5,127.5C 160.433,126.041 160.766,124.708 161.5,123.5 Z"/></g>
<g><path style="opacity:1" fill="#edf9fd" d="M 171.5,122.5 C 173.96,125.397 175.96,128.731 177.5,132.5C 179.103,129.627 180.436,126.627 181.5,123.5C 182.167,122.167 182.833,122.167 183.5,123.5C 181.927,127.392 180.26,131.225 178.5,135C 177.551,135.617 176.718,135.451 176,134.5C 174.209,130.589 172.709,126.589 171.5,122.5 Z"/></g>
<g><path style="opacity:1" fill="#e0f4fc" d="M 188.5,121.5 C 194.167,121.167 196.833,123.833 196.5,129.5C 193.167,129.5 189.833,129.5 186.5,129.5C 186.822,133.976 189.156,135.476 193.5,134C 194.047,133.075 194.713,132.242 195.5,131.5C 196.282,133.329 195.616,134.829 193.5,136C 185.885,136.659 183.051,133.159 185,125.5C 185.69,123.65 186.856,122.316 188.5,121.5 Z"/></g>
<g><path style="opacity:1" fill="#10b0ef" d="M 188.5,123.5 C 192.241,122.599 194.241,123.932 194.5,127.5C 191.753,127.813 189.086,127.48 186.5,126.5C 187.193,125.482 187.859,124.482 188.5,123.5 Z"/></g>
<g><path style="opacity:1" fill="#edf9fd" d="M 274.5,116.5 C 275.833,122.5 275.833,128.5 274.5,134.5C 268.246,138.088 264.912,136.255 264.5,129C 264.817,121.997 267.983,120.163 274,123.5C 274.497,121.19 274.663,118.857 274.5,116.5 Z"/></g>
<g><path style="opacity:1" fill="#20b2ef" d="M 267.5,123.5 C 273.997,123.18 276.164,126.18 274,132.5C 270.844,135.399 268.178,135.065 266,131.5C 265.282,128.593 265.782,125.926 267.5,123.5 Z"/></g>
<g><path style="opacity:1" fill="#ecf8fd" d="M 208.5,122.5 C 210.96,125.397 212.96,128.731 214.5,132.5C 216.103,129.627 217.436,126.627 218.5,123.5C 219.002,122.479 219.668,122.312 220.5,123C 218.127,129.283 215.46,135.45 212.5,141.5C 212.167,141.167 211.833,140.833 211.5,140.5C 212.304,139.059 212.971,137.559 213.5,136C 211.674,131.523 210.007,127.023 208.5,122.5 Z"/></g>
</svg>
