<?xml version="1.0" encoding="UTF-8"?>
<!DOCTYPE svg PUBLIC "-//W3C//DTD SVG 1.1//EN" "http://www.w3.org/Graphics/SVG/1.1/DTD/svg11.dtd">
<svg xmlns="http://www.w3.org/2000/svg" version="1.1" width="400px" height="400px" style="shape-rendering:geometricPrecision; text-rendering:geometricPrecision; image-rendering:optimizeQuality; fill-rule:evenodd; clip-rule:evenodd" xmlns:xlink="http://www.w3.org/1999/xlink">
<g><path style="opacity:1" fill="#11386b" d="M -0.5,-0.5 C 18.1667,-0.5 36.8333,-0.5 55.5,-0.5C 55.5,10.1667 55.5,20.8333 55.5,31.5C 54.1667,31.5 52.8333,31.5 51.5,31.5C 51.5,34.1667 51.5,36.8333 51.5,39.5C 50.1667,39.5 48.8333,39.5 47.5,39.5C 47.5,42.1667 47.5,44.8333 47.5,47.5C 46.1667,47.5 44.8333,47.5 43.5,47.5C 43.5,55.5 43.5,63.5 43.5,71.5C 42.1667,71.5 40.8333,71.5 39.5,71.5C 39.5,74.1667 39.5,76.8333 39.5,79.5C 38.1667,79.5 36.8333,79.5 35.5,79.5C 35.5,84.8333 35.5,90.1667 35.5,95.5C 34.1667,95.5 32.8333,95.5 31.5,95.5C 31.5,90.1667 31.5,84.8333 31.5,79.5C 27.5,79.5 23.5,79.5 19.5,79.5C 19.5,84.8333 19.5,90.1667 19.5,95.5C 18.1667,95.5 16.8333,95.5 15.5,95.5C 15.5,106.167 15.5,116.833 15.5,127.5C 14.1667,127.5 12.8333,127.5 11.5,127.5C 11.5,148.833 11.5,170.167 11.5,191.5C 12.8333,191.5 14.1667,191.5 15.5,191.5C 15.5,202.167 15.5,212.833 15.5,223.5C 16.8333,223.5 18.1667,223.5 19.5,223.5C 19.5,228.833 19.5,234.167 19.5,239.5C 20.8333,239.5 22.1667,239.5 23.5,239.5C 23.5,244.833 23.5,250.167 23.5,255.5C 24.8333,255.5 26.1667,255.5 27.5,255.5C 27.5,256.833 27.5,258.167 27.5,259.5C 28.8333,259.5 30.1667,259.5 31.5,259.5C 31.5,262.167 31.5,264.833 31.5,267.5C 32.8333,267.5 34.1667,267.5 35.5,267.5C 35.5,270.167 35.5,272.833 35.5,275.5C 38.1667,275.5 40.8333,275.5 43.5,275.5C 43.5,278.167 43.5,280.833 43.5,283.5C 44.8333,283.5 46.1667,283.5 47.5,283.5C 47.5,284.833 47.5,286.167 47.5,287.5C 48.8333,287.5 50.1667,287.5 51.5,287.5C 51.5,288.833 51.5,290.167 51.5,291.5C 54.1667,291.5 56.8333,291.5 59.5,291.5C 59.5,294.167 59.5,296.833 59.5,299.5C 60.8333,299.5 62.1667,299.5 63.5,299.5C 63.5,300.833 63.5,302.167 63.5,303.5C 66.1667,303.5 68.8333,303.5 71.5,303.5C 71.5,304.833 71.5,306.167 71.5,307.5C 74.1667,307.5 76.8333,307.5 79.5,307.5C 79.5,308.833 79.5,310.167 79.5,311.5C 82.1667,311.5 84.8333,311.5 87.5,311.5C 87.5,312.833 87.5,314.167 87.5,315.5C 95.5,315.5 103.5,315.5 111.5,315.5C 111.5,316.833 111.5,318.167 111.5,319.5C 116.833,319.5 122.167,319.5 127.5,319.5C 127.5,318.167 127.5,316.833 127.5,315.5C 136.833,315.5 146.167,315.5 155.5,315.5C 155.5,314.167 155.5,312.833 155.5,311.5C 140.833,311.5 126.167,311.5 111.5,311.5C 111.5,310.167 111.5,308.833 111.5,307.5C 127.5,307.5 143.5,307.5 159.5,307.5C 159.5,306.167 159.5,304.833 159.5,303.5C 162.167,303.5 164.833,303.5 167.5,303.5C 167.5,304.833 167.5,306.167 167.5,307.5C 171.5,307.5 175.5,307.5 179.5,307.5C 179.5,306.167 179.5,304.833 179.5,303.5C 178.167,303.5 176.833,303.5 175.5,303.5C 175.5,302.167 175.5,300.833 175.5,299.5C 179.5,299.5 183.5,299.5 187.5,299.5C 187.5,298.167 187.5,296.833 187.5,295.5C 188.833,295.5 190.167,295.5 191.5,295.5C 191.5,294.167 191.5,292.833 191.5,291.5C 192.833,291.5 194.167,291.5 195.5,291.5C 195.5,294.167 195.5,296.833 195.5,299.5C 195.5,300.833 195.5,302.167 195.5,303.5C 194.167,303.5 192.833,303.5 191.5,303.5C 191.5,306.167 191.5,308.833 191.5,311.5C 190.167,311.5 188.833,311.5 187.5,311.5C 187.5,312.833 187.5,314.167 187.5,315.5C 184.833,315.5 182.167,315.5 179.5,315.5C 179.5,316.833 179.5,318.167 179.5,319.5C 178.167,319.5 176.833,319.5 175.5,319.5C 175.5,320.833 175.5,322.167 175.5,323.5C 171.5,323.5 167.5,323.5 163.5,323.5C 163.5,324.833 163.5,326.167 163.5,327.5C 156.833,327.5 150.167,327.5 143.5,327.5C 143.5,328.833 143.5,330.167 143.5,331.5C 138.167,331.5 132.833,331.5 127.5,331.5C 127.5,334.167 127.5,336.833 127.5,339.5C 106.167,339.5 84.8333,339.5 63.5,339.5C 63.5,338.167 63.5,336.833 63.5,335.5C 59.5,335.5 55.5,335.5 51.5,335.5C 51.5,334.167 51.5,332.833 51.5,331.5C 48.8333,331.5 46.1667,331.5 43.5,331.5C 43.5,330.167 43.5,328.833 43.5,327.5C 40.8333,327.5 38.1667,327.5 35.5,327.5C 35.5,326.167 35.5,324.833 35.5,323.5C 34.1667,323.5 32.8333,323.5 31.5,323.5C 31.5,322.167 31.5,320.833 31.5,319.5C 28.8333,319.5 26.1667,319.5 23.5,319.5C 23.5,316.833 23.5,314.167 23.5,311.5C 20.8333,311.5 18.1667,311.5 15.5,311.5C 15.5,308.833 15.5,306.167 15.5,303.5C 14.1667,303.5 12.8333,303.5 11.5,303.5C 11.5,300.833 11.5,298.167 11.5,295.5C 8.83333,295.5 6.16667,295.5 3.5,295.5C 3.5,292.833 3.5,290.167 3.5,287.5C 2.16667,287.5 0.833333,287.5 -0.5,287.5C -0.5,191.5 -0.5,95.5 -0.5,-0.5 Z"/></g>
<g><path style="opacity:1" fill="#133c6e" d="M 55.5,-0.5 C 62.1667,-0.5 68.8333,-0.5 75.5,-0.5C 75.5,2.16667 75.5,4.83333 75.5,7.5C 74.1667,7.5 72.8333,7.5 71.5,7.5C 71.5,10.1667 71.5,12.8333 71.5,15.5C 70.1667,15.5 68.8333,15.5 67.5,15.5C 67.5,18.1667 67.5,20.8333 67.5,23.5C 66.1667,23.5 64.8333,23.5 63.5,23.5C 63.5,26.1667 63.5,28.8333 63.5,31.5C 62.1667,31.5 60.8333,31.5 59.5,31.5C 59.5,34.1667 59.5,36.8333 59.5,39.5C 58.1667,39.5 56.8333,39.5 55.5,39.5C 55.5,44.8333 55.5,50.1667 55.5,55.5C 54.1667,55.5 52.8333,55.5 51.5,55.5C 51.5,58.1667 51.5,60.8333 51.5,63.5C 50.1667,63.5 48.8333,63.5 47.5,63.5C 47.5,68.8333 47.5,74.1667 47.5,79.5C 46.1667,79.5 44.8333,79.5 43.5,79.5C 43.5,84.8333 43.5,90.1667 43.5,95.5C 42.1667,95.5 40.8333,95.5 39.5,95.5C 39.5,106.167 39.5,116.833 39.5,127.5C 38.1667,127.5 36.8333,127.5 35.5,127.5C 35.5,154.167 35.5,180.833 35.5,207.5C 36.5,207.5 37.5,207.5 38.5,207.5C 38.169,215.528 38.5023,223.528 39.5,231.5C 40.1818,232.243 40.8485,232.909 41.5,233.5C 42.5,233.833 43.1667,234.5 43.5,235.5C 44.5676,236.434 45.901,236.768 47.5,236.5C 49.6581,238.22 52.3248,239.053 55.5,239C 52.854,239.497 50.1873,239.664 47.5,239.5C 47.5,242.167 47.5,244.833 47.5,247.5C 48.8333,247.5 50.1667,247.5 51.5,247.5C 51.5,250.167 51.5,252.833 51.5,255.5C 52.8333,255.5 54.1667,255.5 55.5,255.5C 55.5,258.167 55.5,260.833 55.5,263.5C 56.8333,263.5 58.1667,263.5 59.5,263.5C 59.5,266.167 59.5,268.833 59.5,271.5C 62.1667,271.5 64.8333,271.5 67.5,271.5C 67.5,272.833 67.5,274.167 67.5,275.5C 70.1667,275.5 72.8333,275.5 75.5,275.5C 75.5,278.167 75.5,280.833 75.5,283.5C 76.8333,283.5 78.1667,283.5 79.5,283.5C 79.5,284.833 79.5,286.167 79.5,287.5C 82.1667,287.5 84.8333,287.5 87.5,287.5C 87.5,290.167 87.5,292.833 87.5,295.5C 92.8333,295.5 98.1667,295.5 103.5,295.5C 103.5,296.833 103.5,298.167 103.5,299.5C 108.833,299.5 114.167,299.5 119.5,299.5C 119.5,300.833 119.5,302.167 119.5,303.5C 132.833,303.5 146.167,303.5 159.5,303.5C 159.5,304.833 159.5,306.167 159.5,307.5C 143.5,307.5 127.5,307.5 111.5,307.5C 111.5,308.833 111.5,310.167 111.5,311.5C 126.167,311.5 140.833,311.5 155.5,311.5C 155.5,312.833 155.5,314.167 155.5,315.5C 146.167,315.5 136.833,315.5 127.5,315.5C 127.5,316.833 127.5,318.167 127.5,319.5C 122.167,319.5 116.833,319.5 111.5,319.5C 111.5,318.167 111.5,316.833 111.5,315.5C 103.5,315.5 95.5,315.5 87.5,315.5C 87.5,314.167 87.5,312.833 87.5,311.5C 84.8333,311.5 82.1667,311.5 79.5,311.5C 79.5,310.167 79.5,308.833 79.5,307.5C 76.8333,307.5 74.1667,307.5 71.5,307.5C 71.5,306.167 71.5,304.833 71.5,303.5C 68.8333,303.5 66.1667,303.5 63.5,303.5C 63.5,302.167 63.5,300.833 63.5,299.5C 62.1667,299.5 60.8333,299.5 59.5,299.5C 59.5,296.833 59.5,294.167 59.5,291.5C 56.8333,291.5 54.1667,291.5 51.5,291.5C 51.5,290.167 51.5,288.833 51.5,287.5C 50.1667,287.5 48.8333,287.5 47.5,287.5C 47.5,286.167 47.5,284.833 47.5,283.5C 46.1667,283.5 44.8333,283.5 43.5,283.5C 43.5,280.833 43.5,278.167 43.5,275.5C 40.8333,275.5 38.1667,275.5 35.5,275.5C 35.5,272.833 35.5,270.167 35.5,267.5C 34.1667,267.5 32.8333,267.5 31.5,267.5C 31.5,264.833 31.5,262.167 31.5,259.5C 30.1667,259.5 28.8333,259.5 27.5,259.5C 27.5,258.167 27.5,256.833 27.5,255.5C 26.1667,255.5 24.8333,255.5 23.5,255.5C 23.5,250.167 23.5,244.833 23.5,239.5C 22.1667,239.5 20.8333,239.5 19.5,239.5C 19.5,234.167 19.5,228.833 19.5,223.5C 18.1667,223.5 16.8333,223.5 15.5,223.5C 15.5,212.833 15.5,202.167 15.5,191.5C 14.1667,191.5 12.8333,191.5 11.5,191.5C 11.5,170.167 11.5,148.833 11.5,127.5C 12.8333,127.5 14.1667,127.5 15.5,127.5C 15.5,116.833 15.5,106.167 15.5,95.5C 16.8333,95.5 18.1667,95.5 19.5,95.5C 19.5,90.1667 19.5,84.8333 19.5,79.5C 23.5,79.5 27.5,79.5 31.5,79.5C 31.5,84.8333 31.5,90.1667 31.5,95.5C 32.8333,95.5 34.1667,95.5 35.5,95.5C 35.5,90.1667 35.5,84.8333 35.5,79.5C 36.8333,79.5 38.1667,79.5 39.5,79.5C 39.5,76.8333 39.5,74.1667 39.5,71.5C 40.8333,71.5 42.1667,71.5 43.5,71.5C 43.5,63.5 43.5,55.5 43.5,47.5C 44.8333,47.5 46.1667,47.5 47.5,47.5C 47.5,44.8333 47.5,42.1667 47.5,39.5C 48.8333,39.5 50.1667,39.5 51.5,39.5C 51.5,36.8333 51.5,34.1667 51.5,31.5C 52.8333,31.5 54.1667,31.5 55.5,31.5C 55.5,20.8333 55.5,10.1667 55.5,-0.5 Z"/></g>
<g><path style="opacity:1" fill="#164171" d="M 75.5,-0.5 C 84.8333,-0.5 94.1667,-0.5 103.5,-0.5C 103.5,2.16667 103.5,4.83333 103.5,7.5C 102.167,7.5 100.833,7.5 99.5,7.5C 99.5,16.8333 99.5,26.1667 99.5,35.5C 98.1667,35.5 96.8333,35.5 95.5,35.5C 95.5,36.8333 95.5,38.1667 95.5,39.5C 92.8333,39.5 90.1667,39.5 87.5,39.5C 87.5,44.8333 87.5,50.1667 87.5,55.5C 86.1667,55.5 84.8333,55.5 83.5,55.5C 83.5,60.8333 83.5,66.1667 83.5,71.5C 82.1667,71.5 80.8333,71.5 79.5,71.5C 80.3023,77.9287 79.1356,83.9287 76,89.5C 75.5017,92.8168 75.335,96.1501 75.5,99.5C 74.1667,99.5 72.8333,99.5 71.5,99.5C 71.5,100.833 71.5,102.167 71.5,103.5C 70.1667,103.5 68.8333,103.5 67.5,103.5C 67.5,106.167 67.5,108.833 67.5,111.5C 68.8333,111.5 70.1667,111.5 71.5,111.5C 71.5,115.5 71.5,119.5 71.5,123.5C 70.1667,123.5 68.8333,123.5 67.5,123.5C 67.5,127.5 67.5,131.5 67.5,135.5C 68.8333,135.5 70.1667,135.5 71.5,135.5C 71.5,138.833 71.5,142.167 71.5,145.5C 76.5111,145.334 81.5111,145.501 86.5,146C 83.0641,147.776 79.3974,148.776 75.5,149C 79.3563,149.177 83.023,149.677 86.5,150.5C 71.6922,151.118 57.0255,151.785 42.5,152.5C 41.5093,179.426 41.1759,206.426 41.5,233.5C 40.8485,232.909 40.1818,232.243 39.5,231.5C 38.5023,223.528 38.169,215.528 38.5,207.5C 37.5,207.5 36.5,207.5 35.5,207.5C 35.5,180.833 35.5,154.167 35.5,127.5C 36.8333,127.5 38.1667,127.5 39.5,127.5C 39.5,116.833 39.5,106.167 39.5,95.5C 40.8333,95.5 42.1667,95.5 43.5,95.5C 43.5,90.1667 43.5,84.8333 43.5,79.5C 44.8333,79.5 46.1667,79.5 47.5,79.5C 47.5,74.1667 47.5,68.8333 47.5,63.5C 48.8333,63.5 50.1667,63.5 51.5,63.5C 51.5,60.8333 51.5,58.1667 51.5,55.5C 52.8333,55.5 54.1667,55.5 55.5,55.5C 55.5,50.1667 55.5,44.8333 55.5,39.5C 56.8333,39.5 58.1667,39.5 59.5,39.5C 59.5,36.8333 59.5,34.1667 59.5,31.5C 60.8333,31.5 62.1667,31.5 63.5,31.5C 63.5,28.8333 63.5,26.1667 63.5,23.5C 64.8333,23.5 66.1667,23.5 67.5,23.5C 67.5,20.8333 67.5,18.1667 67.5,15.5C 68.8333,15.5 70.1667,15.5 71.5,15.5C 71.5,12.8333 71.5,10.1667 71.5,7.5C 72.8333,7.5 74.1667,7.5 75.5,7.5C 75.5,4.83333 75.5,2.16667 75.5,-0.5 Z"/></g>
<g><path style="opacity:1" fill="#1c4877" d="M 103.5,-0.5 C 115.5,-0.5 127.5,-0.5 139.5,-0.5C 139.5,0.833333 139.5,2.16667 139.5,3.5C 138.167,3.5 136.833,3.5 135.5,3.5C 135.5,10.1667 135.5,16.8333 135.5,23.5C 134.167,23.5 132.833,23.5 131.5,23.5C 131.5,26.1667 131.5,28.8333 131.5,31.5C 130.167,31.5 128.833,31.5 127.5,31.5C 127.5,35.5 127.5,39.5 127.5,43.5C 126.167,43.5 124.833,43.5 123.5,43.5C 123.5,44.8333 123.5,46.1667 123.5,47.5C 120.833,47.5 118.167,47.5 115.5,47.5C 115.5,51.5 115.5,55.5 115.5,59.5C 114.167,59.5 112.833,59.5 111.5,59.5C 111.5,66.1667 111.5,72.8333 111.5,79.5C 110.167,79.5 108.833,79.5 107.5,79.5C 107.5,87.5 107.5,95.5 107.5,103.5C 106.167,103.5 104.833,103.5 103.5,103.5C 103.5,108.833 103.5,114.167 103.5,119.5C 100.833,119.5 98.1667,119.5 95.5,119.5C 95.5,129.5 95.5,139.5 95.5,149.5C 92.5176,149.963 89.5176,150.296 86.5,150.5C 83.023,149.677 79.3563,149.177 75.5,149C 79.3974,148.776 83.0641,147.776 86.5,146C 81.5111,145.501 76.5111,145.334 71.5,145.5C 71.5,142.167 71.5,138.833 71.5,135.5C 70.1667,135.5 68.8333,135.5 67.5,135.5C 67.5,131.5 67.5,127.5 67.5,123.5C 68.8333,123.5 70.1667,123.5 71.5,123.5C 71.5,119.5 71.5,115.5 71.5,111.5C 70.1667,111.5 68.8333,111.5 67.5,111.5C 67.5,108.833 67.5,106.167 67.5,103.5C 68.8333,103.5 70.1667,103.5 71.5,103.5C 71.5,102.167 71.5,100.833 71.5,99.5C 72.8333,99.5 74.1667,99.5 75.5,99.5C 75.335,96.1501 75.5017,92.8168 76,89.5C 79.1356,83.9287 80.3023,77.9287 79.5,71.5C 80.8333,71.5 82.1667,71.5 83.5,71.5C 83.5,66.1667 83.5,60.8333 83.5,55.5C 84.8333,55.5 86.1667,55.5 87.5,55.5C 87.5,50.1667 87.5,44.8333 87.5,39.5C 90.1667,39.5 92.8333,39.5 95.5,39.5C 95.5,38.1667 95.5,36.8333 95.5,35.5C 96.8333,35.5 98.1667,35.5 99.5,35.5C 99.5,26.1667 99.5,16.8333 99.5,7.5C 100.833,7.5 102.167,7.5 103.5,7.5C 103.5,4.83333 103.5,2.16667 103.5,-0.5 Z"/></g>
<g><path style="opacity:1" fill="#24547e" d="M 159.5,-0.5 C 167.5,-0.5 175.5,-0.5 183.5,-0.5C 183.5,2.16667 183.5,4.83333 183.5,7.5C 182.167,7.5 180.833,7.5 179.5,7.5C 179.5,10.1667 179.5,12.8333 179.5,15.5C 178.167,15.5 176.833,15.5 175.5,15.5C 175.5,18.1667 175.5,20.8333 175.5,23.5C 174.167,23.5 172.833,23.5 171.5,23.5C 171.5,24.8333 171.5,26.1667 171.5,27.5C 170.167,27.5 168.833,27.5 167.5,27.5C 167.5,31.5 167.5,35.5 167.5,39.5C 166.167,39.5 164.833,39.5 163.5,39.5C 163.5,42.1667 163.5,44.8333 163.5,47.5C 162.167,47.5 160.833,47.5 159.5,47.5C 159.5,50.1667 159.5,52.8333 159.5,55.5C 158.167,55.5 156.833,55.5 155.5,55.5C 155.5,58.1667 155.5,60.8333 155.5,63.5C 154.167,63.5 152.833,63.5 151.5,63.5C 151.5,67.5 151.5,71.5 151.5,75.5C 150.167,75.5 148.833,75.5 147.5,75.5C 147.5,79.5 147.5,83.5 147.5,87.5C 146.167,87.5 144.833,87.5 143.5,87.5C 143.5,92.8333 143.5,98.1667 143.5,103.5C 142.167,103.5 140.833,103.5 139.5,103.5C 139.5,111.5 139.5,119.5 139.5,127.5C 138.167,127.5 136.833,127.5 135.5,127.5C 135.5,133.5 135.5,139.5 135.5,145.5C 136.978,145.238 138.311,145.571 139.5,146.5C 136.815,147.016 134.815,148.35 133.5,150.5C 130.302,149.964 127.635,150.631 125.5,152.5C 124.509,179.426 124.176,206.426 124.5,233.5C 123.833,219.994 123.167,206.327 122.5,192.5C 120.488,191.548 119.488,189.881 119.5,187.5C 121.427,178.586 121.927,169.586 121,160.5C 120.667,160.167 120.333,159.833 120,159.5C 119.5,166.158 119.334,172.825 119.5,179.5C 118.167,179.5 116.833,179.5 115.5,179.5C 115.782,167.448 115.115,155.448 113.5,143.5C 113.833,140.833 114.167,138.167 114.5,135.5C 116.253,132.995 117.753,130.329 119,127.5C 119.5,119.507 119.666,111.507 119.5,103.5C 120.833,103.5 122.167,103.5 123.5,103.5C 123.5,98.1667 123.5,92.8333 123.5,87.5C 124.833,87.5 126.167,87.5 127.5,87.5C 127.172,82.1254 127.505,76.7921 128.5,71.5C 130.623,69.2546 131.623,66.5879 131.5,63.5C 132.833,63.5 134.167,63.5 135.5,63.5C 135.5,60.8333 135.5,58.1667 135.5,55.5C 136.833,55.5 138.167,55.5 139.5,55.5C 139.5,50.1667 139.5,44.8333 139.5,39.5C 140.833,39.5 142.167,39.5 143.5,39.5C 143.5,38.1667 143.5,36.8333 143.5,35.5C 144.833,35.5 146.167,35.5 147.5,35.5C 147.5,32.8333 147.5,30.1667 147.5,27.5C 148.833,27.5 150.167,27.5 151.5,27.5C 151.5,23.5 151.5,19.5 151.5,15.5C 152.833,15.5 154.167,15.5 155.5,15.5C 155.5,14.1667 155.5,12.8333 155.5,11.5C 156.833,11.5 158.167,11.5 159.5,11.5C 159.5,7.5 159.5,3.5 159.5,-0.5 Z"/></g>
<g><path style="opacity:1" fill="#275a84" d="M 183.5,-0.5 C 191.5,-0.5 199.5,-0.5 207.5,-0.5C 207.5,0.833333 207.5,2.16667 207.5,3.5C 206.167,3.5 204.833,3.5 203.5,3.5C 203.5,4.83333 203.5,6.16667 203.5,7.5C 202.167,7.5 200.833,7.5 199.5,7.5C 199.5,10.1667 199.5,12.8333 199.5,15.5C 198.167,15.5 196.833,15.5 195.5,15.5C 195.5,16.8333 195.5,18.1667 195.5,19.5C 194.167,19.5 192.833,19.5 191.5,19.5C 191.5,23.5 191.5,27.5 191.5,31.5C 190.167,31.5 188.833,31.5 187.5,31.5C 187.5,32.8333 187.5,34.1667 187.5,35.5C 186.167,35.5 184.833,35.5 183.5,35.5C 183.5,38.1667 183.5,40.8333 183.5,43.5C 182.167,43.5 180.833,43.5 179.5,43.5C 179.5,46.1667 179.5,48.8333 179.5,51.5C 178.167,51.5 176.833,51.5 175.5,51.5C 175.5,54.1667 175.5,56.8333 175.5,59.5C 174.167,59.5 172.833,59.5 171.5,59.5C 171.5,62.1667 171.5,64.8333 171.5,67.5C 170.167,67.5 168.833,67.5 167.5,67.5C 167.5,71.5 167.5,75.5 167.5,79.5C 166.167,79.5 164.833,79.5 163.5,79.5C 163.5,84.8333 163.5,90.1667 163.5,95.5C 162.167,95.5 160.833,95.5 159.5,95.5C 159.666,100.844 159.499,106.177 159,111.5C 158.562,114.376 157.562,117.043 156,119.5C 156.12,127.932 155.287,136.099 153.5,144C 156.901,143.734 158.567,145.234 158.5,148.5C 153.32,148.847 148.32,149.513 143.5,150.5C 140.167,150.5 136.833,150.5 133.5,150.5C 134.815,148.35 136.815,147.016 139.5,146.5C 138.311,145.571 136.978,145.238 135.5,145.5C 135.5,139.5 135.5,133.5 135.5,127.5C 136.833,127.5 138.167,127.5 139.5,127.5C 139.5,119.5 139.5,111.5 139.5,103.5C 140.833,103.5 142.167,103.5 143.5,103.5C 143.5,98.1667 143.5,92.8333 143.5,87.5C 144.833,87.5 146.167,87.5 147.5,87.5C 147.5,83.5 147.5,79.5 147.5,75.5C 148.833,75.5 150.167,75.5 151.5,75.5C 151.5,71.5 151.5,67.5 151.5,63.5C 152.833,63.5 154.167,63.5 155.5,63.5C 155.5,60.8333 155.5,58.1667 155.5,55.5C 156.833,55.5 158.167,55.5 159.5,55.5C 159.5,52.8333 159.5,50.1667 159.5,47.5C 160.833,47.5 162.167,47.5 163.5,47.5C 163.5,44.8333 163.5,42.1667 163.5,39.5C 164.833,39.5 166.167,39.5 167.5,39.5C 167.5,35.5 167.5,31.5 167.5,27.5C 168.833,27.5 170.167,27.5 171.5,27.5C 171.5,26.1667 171.5,24.8333 171.5,23.5C 172.833,23.5 174.167,23.5 175.5,23.5C 175.5,20.8333 175.5,18.1667 175.5,15.5C 176.833,15.5 178.167,15.5 179.5,15.5C 179.5,12.8333 179.5,10.1667 179.5,7.5C 180.833,7.5 182.167,7.5 183.5,7.5C 183.5,4.83333 183.5,2.16667 183.5,-0.5 Z"/></g>
<g><path style="opacity:1" fill="#2a6087" d="M 207.5,-0.5 C 215.5,-0.5 223.5,-0.5 231.5,-0.5C 231.5,0.833333 231.5,2.16667 231.5,3.5C 230.167,3.5 228.833,3.5 227.5,3.5C 227.5,4.83333 227.5,6.16667 227.5,7.5C 226.167,7.5 224.833,7.5 223.5,7.5C 223.5,8.83333 223.5,10.1667 223.5,11.5C 222.167,11.5 220.833,11.5 219.5,11.5C 219.5,12.8333 219.5,14.1667 219.5,15.5C 218.167,15.5 216.833,15.5 215.5,15.5C 215.5,18.1667 215.5,20.8333 215.5,23.5C 214.167,23.5 212.833,23.5 211.5,23.5C 211.5,26.1667 211.5,28.8333 211.5,31.5C 210.167,31.5 208.833,31.5 207.5,31.5C 207.5,32.8333 207.5,34.1667 207.5,35.5C 206.167,35.5 204.833,35.5 203.5,35.5C 203.5,38.1667 203.5,40.8333 203.5,43.5C 202.167,43.5 200.833,43.5 199.5,43.5C 199.5,44.8333 199.5,46.1667 199.5,47.5C 198.167,47.5 196.833,47.5 195.5,47.5C 195.5,50.1667 195.5,52.8333 195.5,55.5C 194.167,55.5 192.833,55.5 191.5,55.5C 191.5,59.5 191.5,63.5 191.5,67.5C 190.167,67.5 188.833,67.5 187.5,67.5C 187.5,70.1667 187.5,72.8333 187.5,75.5C 186.167,75.5 184.833,75.5 183.5,75.5C 183.5,78.1667 183.5,80.8333 183.5,83.5C 182.167,83.5 180.833,83.5 179.5,83.5C 178.858,86.135 178.191,88.8016 177.5,91.5C 177.86,93.6079 178.527,95.6079 179.5,97.5C 175.909,104.371 174.575,111.704 175.5,119.5C 174.167,119.5 172.833,119.5 171.5,119.5C 171.832,129.19 171.498,138.856 170.5,148.5C 169.692,148.808 169.025,149.308 168.5,150C 160.173,150.5 151.84,150.666 143.5,150.5C 148.32,149.513 153.32,148.847 158.5,148.5C 158.567,145.234 156.901,143.734 153.5,144C 155.287,136.099 156.12,127.932 156,119.5C 157.562,117.043 158.562,114.376 159,111.5C 159.499,106.177 159.666,100.844 159.5,95.5C 160.833,95.5 162.167,95.5 163.5,95.5C 163.5,90.1667 163.5,84.8333 163.5,79.5C 164.833,79.5 166.167,79.5 167.5,79.5C 167.5,75.5 167.5,71.5 167.5,67.5C 168.833,67.5 170.167,67.5 171.5,67.5C 171.5,64.8333 171.5,62.1667 171.5,59.5C 172.833,59.5 174.167,59.5 175.5,59.5C 175.5,56.8333 175.5,54.1667 175.5,51.5C 176.833,51.5 178.167,51.5 179.5,51.5C 179.5,48.8333 179.5,46.1667 179.5,43.5C 180.833,43.5 182.167,43.5 183.5,43.5C 183.5,40.8333 183.5,38.1667 183.5,35.5C 184.833,35.5 186.167,35.5 187.5,35.5C 187.5,34.1667 187.5,32.8333 187.5,31.5C 188.833,31.5 190.167,31.5 191.5,31.5C 191.5,27.5 191.5,23.5 191.5,19.5C 192.833,19.5 194.167,19.5 195.5,19.5C 195.5,18.1667 195.5,16.8333 195.5,15.5C 196.833,15.5 198.167,15.5 199.5,15.5C 199.5,12.8333 199.5,10.1667 199.5,7.5C 200.833,7.5 202.167,7.5 203.5,7.5C 203.5,6.16667 203.5,4.83333 203.5,3.5C 204.833,3.5 206.167,3.5 207.5,3.5C 207.5,2.16667 207.5,0.833333 207.5,-0.5 Z"/></g>
<g><path style="opacity:1" fill="#2f678c" d="M 231.5,-0.5 C 238.167,-0.5 244.833,-0.5 251.5,-0.5C 251.5,0.833333 251.5,2.16667 251.5,3.5C 250.167,3.5 248.833,3.5 247.5,3.5C 247.5,4.83333 247.5,6.16667 247.5,7.5C 246.167,7.5 244.833,7.5 243.5,7.5C 243.5,8.83333 243.5,10.1667 243.5,11.5C 242.167,11.5 240.833,11.5 239.5,11.5C 239.5,12.8333 239.5,14.1667 239.5,15.5C 238.167,15.5 236.833,15.5 235.5,15.5C 235.5,18.1667 235.5,20.8333 235.5,23.5C 234.167,23.5 232.833,23.5 231.5,23.5C 231.5,24.8333 231.5,26.1667 231.5,27.5C 230.167,27.5 228.833,27.5 227.5,27.5C 227.5,28.8333 227.5,30.1667 227.5,31.5C 226.167,31.5 224.833,31.5 223.5,31.5C 223.5,34.1667 223.5,36.8333 223.5,39.5C 222.167,39.5 220.833,39.5 219.5,39.5C 219.5,42.1667 219.5,44.8333 219.5,47.5C 218.167,47.5 216.833,47.5 215.5,47.5C 215.5,48.8333 215.5,50.1667 215.5,51.5C 214.167,51.5 212.833,51.5 211.5,51.5C 211.5,54.1667 211.5,56.8333 211.5,59.5C 210.167,59.5 208.833,59.5 207.5,59.5C 207.5,62.1667 207.5,64.8333 207.5,67.5C 206.167,67.5 204.833,67.5 203.5,67.5C 203.5,70.1667 203.5,72.8333 203.5,75.5C 202.167,75.5 200.833,75.5 199.5,75.5C 199.5,79.5 199.5,83.5 199.5,87.5C 198.167,87.5 196.833,87.5 195.5,87.5C 195.5,94.1667 195.5,100.833 195.5,107.5C 194.167,107.5 192.833,107.5 191.5,107.5C 191.5,111.5 191.5,115.5 191.5,119.5C 190.167,119.5 188.833,119.5 187.5,119.5C 187.333,130.172 187.5,140.839 188,151.5C 189.729,153.593 191.562,155.093 193.5,156C 193.37,157.059 192.87,157.892 192,158.5C 191.653,156.82 190.653,155.82 189,155.5C 187.189,155.708 185.356,156.041 183.5,156.5C 180.372,154.846 177.039,153.679 173.5,153C 157.503,152.5 141.503,152.333 125.5,152.5C 127.635,150.631 130.302,149.964 133.5,150.5C 136.833,150.5 140.167,150.5 143.5,150.5C 151.84,150.666 160.173,150.5 168.5,150C 169.025,149.308 169.692,148.808 170.5,148.5C 171.498,138.856 171.832,129.19 171.5,119.5C 172.833,119.5 174.167,119.5 175.5,119.5C 174.575,111.704 175.909,104.371 179.5,97.5C 178.527,95.6079 177.86,93.6079 177.5,91.5C 178.191,88.8016 178.858,86.135 179.5,83.5C 180.833,83.5 182.167,83.5 183.5,83.5C 183.5,80.8333 183.5,78.1667 183.5,75.5C 184.833,75.5 186.167,75.5 187.5,75.5C 187.5,72.8333 187.5,70.1667 187.5,67.5C 188.833,67.5 190.167,67.5 191.5,67.5C 191.5,63.5 191.5,59.5 191.5,55.5C 192.833,55.5 194.167,55.5 195.5,55.5C 195.5,52.8333 195.5,50.1667 195.5,47.5C 196.833,47.5 198.167,47.5 199.5,47.5C 199.5,46.1667 199.5,44.8333 199.5,43.5C 200.833,43.5 202.167,43.5 203.5,43.5C 203.5,40.8333 203.5,38.1667 203.5,35.5C 204.833,35.5 206.167,35.5 207.5,35.5C 207.5,34.1667 207.5,32.8333 207.5,31.5C 208.833,31.5 210.167,31.5 211.5,31.5C 211.5,28.8333 211.5,26.1667 211.5,23.5C 212.833,23.5 214.167,23.5 215.5,23.5C 215.5,20.8333 215.5,18.1667 215.5,15.5C 216.833,15.5 218.167,15.5 219.5,15.5C 219.5,14.1667 219.5,12.8333 219.5,11.5C 220.833,11.5 222.167,11.5 223.5,11.5C 223.5,10.1667 223.5,8.83333 223.5,7.5C 224.833,7.5 226.167,7.5 227.5,7.5C 227.5,6.16667 227.5,4.83333 227.5,3.5C 228.833,3.5 230.167,3.5 231.5,3.5C 231.5,2.16667 231.5,0.833333 231.5,-0.5 Z"/></g>
<g><path style="opacity:1" fill="#306c90" d="M 251.5,-0.5 C 259.5,-0.5 267.5,-0.5 275.5,-0.5C 275.5,0.833333 275.5,2.16667 275.5,3.5C 274.167,3.5 272.833,3.5 271.5,3.5C 271.5,6.16667 271.5,8.83333 271.5,11.5C 270.167,11.5 268.833,11.5 267.5,11.5C 267.5,12.8333 267.5,14.1667 267.5,15.5C 266.167,15.5 264.833,15.5 263.5,15.5C 263.5,14.1667 263.5,12.8333 263.5,11.5C 262.167,11.5 260.833,11.5 259.5,11.5C 259.5,12.8333 259.5,14.1667 259.5,15.5C 258.167,15.5 256.833,15.5 255.5,15.5C 255.5,16.8333 255.5,18.1667 255.5,19.5C 254.167,19.5 252.833,19.5 251.5,19.5C 251.5,20.8333 251.5,22.1667 251.5,23.5C 252.833,23.5 254.167,23.5 255.5,23.5C 255.5,24.8333 255.5,26.1667 255.5,27.5C 254.167,27.5 252.833,27.5 251.5,27.5C 251.5,28.8333 251.5,30.1667 251.5,31.5C 250.167,31.5 248.833,31.5 247.5,31.5C 247.5,32.8333 247.5,34.1667 247.5,35.5C 246.167,35.5 244.833,35.5 243.5,35.5C 243.5,36.8333 243.5,38.1667 243.5,39.5C 242.167,39.5 240.833,39.5 239.5,39.5C 239.5,42.1667 239.5,44.8333 239.5,47.5C 236.833,47.5 234.167,47.5 231.5,47.5C 231.5,48.8333 231.5,50.1667 231.5,51.5C 230.167,51.5 228.833,51.5 227.5,51.5C 227.5,52.8333 227.5,54.1667 227.5,55.5C 228.833,55.5 230.167,55.5 231.5,55.5C 231.5,56.8333 231.5,58.1667 231.5,59.5C 228.167,59.5 224.833,59.5 221.5,59.5C 222.167,62.1667 222.833,64.8333 223.5,67.5C 222.167,67.5 220.833,67.5 219.5,67.5C 219.5,68.8333 219.5,70.1667 219.5,71.5C 220.833,71.5 222.167,71.5 223.5,71.5C 223.5,72.8333 223.5,74.1667 223.5,75.5C 222.167,75.5 220.833,75.5 219.5,75.5C 219.5,76.8333 219.5,78.1667 219.5,79.5C 218.167,79.5 216.833,79.5 215.5,79.5C 215.5,80.8333 215.5,82.1667 215.5,83.5C 214.167,83.5 212.833,83.5 211.5,83.5C 211.5,84.8333 211.5,86.1667 211.5,87.5C 212.833,87.5 214.167,87.5 215.5,87.5C 215.5,90.1667 215.5,92.8333 215.5,95.5C 212.833,95.5 210.167,95.5 207.5,95.5C 207.5,99.5 207.5,103.5 207.5,107.5C 206.167,107.5 204.833,107.5 203.5,107.5C 202.878,120.68 203.545,133.68 205.5,146.5C 202.385,148.392 199.051,149.725 195.5,150.5C 195.216,152.415 195.549,154.081 196.5,155.5C 209.037,177.908 221.037,200.575 232.5,223.5C 226.797,223.625 221.13,223.292 215.5,222.5C 215.5,221.5 215.5,220.5 215.5,219.5C 211.466,219.495 207.466,219.162 203.5,218.5C 203.5,217.5 203.5,216.5 203.5,215.5C 201.5,216.167 199.5,216.833 197.5,217.5C 197.827,212.456 197.494,207.456 196.5,202.5C 195.893,202.624 195.56,202.957 195.5,203.5C 192.794,197.954 188.794,193.454 183.5,190C 191.058,184.257 193.558,176.757 191,167.5C 189.451,163.13 186.951,159.463 183.5,156.5C 185.356,156.041 187.189,155.708 189,155.5C 190.653,155.82 191.653,156.82 192,158.5C 192.87,157.892 193.37,157.059 193.5,156C 191.562,155.093 189.729,153.593 188,151.5C 187.5,140.839 187.333,130.172 187.5,119.5C 188.833,119.5 190.167,119.5 191.5,119.5C 191.5,115.5 191.5,111.5 191.5,107.5C 192.833,107.5 194.167,107.5 195.5,107.5C 195.5,100.833 195.5,94.1667 195.5,87.5C 196.833,87.5 198.167,87.5 199.5,87.5C 199.5,83.5 199.5,79.5 199.5,75.5C 200.833,75.5 202.167,75.5 203.5,75.5C 203.5,72.8333 203.5,70.1667 203.5,67.5C 204.833,67.5 206.167,67.5 207.5,67.5C 207.5,64.8333 207.5,62.1667 207.5,59.5C 208.833,59.5 210.167,59.5 211.5,59.5C 211.5,56.8333 211.5,54.1667 211.5,51.5C 212.833,51.5 214.167,51.5 215.5,51.5C 215.5,50.1667 215.5,48.8333 215.5,47.5C 216.833,47.5 218.167,47.5 219.5,47.5C 219.5,44.8333 219.5,42.1667 219.5,39.5C 220.833,39.5 222.167,39.5 223.5,39.5C 223.5,36.8333 223.5,34.1667 223.5,31.5C 224.833,31.5 226.167,31.5 227.5,31.5C 227.5,30.1667 227.5,28.8333 227.5,27.5C 228.833,27.5 230.167,27.5 231.5,27.5C 231.5,26.1667 231.5,24.8333 231.5,23.5C 232.833,23.5 234.167,23.5 235.5,23.5C 235.5,20.8333 235.5,18.1667 235.5,15.5C 236.833,15.5 238.167,15.5 239.5,15.5C 239.5,14.1667 239.5,12.8333 239.5,11.5C 240.833,11.5 242.167,11.5 243.5,11.5C 243.5,10.1667 243.5,8.83333 243.5,7.5C 244.833,7.5 246.167,7.5 247.5,7.5C 247.5,6.16667 247.5,4.83333 247.5,3.5C 248.833,3.5 250.167,3.5 251.5,3.5C 251.5,2.16667 251.5,0.833333 251.5,-0.5 Z"/></g>
<g><path style="opacity:1" fill="#2e6b8f" d="M 347.5,-0.5 C 353.167,-0.5 358.833,-0.5 364.5,-0.5C 365.074,9.33593 366.574,19.0026 369,28.5C 369.69,27.2617 370.19,27.2617 370.5,28.5C 368.084,33.6665 365.418,38.6665 362.5,43.5C 360.484,35.9858 359.484,27.9858 359.5,19.5C 358.5,19.5 357.5,19.5 356.5,19.5C 355.517,13.2019 352.684,7.86858 348,3.5C 347.51,2.20677 347.343,0.873441 347.5,-0.5 Z"/></g>
<g><path style="opacity:1" fill="#255680" d="M 364.5,-0.5 C 371.5,-0.5 378.5,-0.5 385.5,-0.5C 381.262,9.6453 376.262,19.312 370.5,28.5C 370.19,27.2617 369.69,27.2617 369,28.5C 366.574,19.0026 365.074,9.33593 364.5,-0.5 Z"/></g>
<g><path style="opacity:1" fill="#113768" d="M 385.5,-0.5 C 390.167,-0.5 394.833,-0.5 399.5,-0.5C 399.5,20.8333 399.5,42.1667 399.5,63.5C 396.833,63.5 394.167,63.5 391.5,63.5C 391.5,64.8333 391.5,66.1667 391.5,67.5C 384.833,67.5 378.167,67.5 371.5,67.5C 371.5,68.8333 371.5,70.1667 371.5,71.5C 369.508,71.6715 367.842,71.0049 366.5,69.5C 363.962,72.3094 362.962,75.6427 363.5,79.5C 359.486,79.6655 355.486,79.4988 351.5,79C 347.382,75.1553 347.715,71.6553 352.5,68.5C 353.325,67.6143 354.325,67.281 355.5,67.5C 355.649,66.448 355.483,65.448 355,64.5C 354.346,65.6956 353.846,65.6956 353.5,64.5C 359.938,65.1214 360.938,62.9547 356.5,58C 357.582,56.6703 358.249,55.1703 358.5,53.5C 359.833,50.1667 361.167,46.8333 362.5,43.5C 365.418,38.6665 368.084,33.6665 370.5,28.5C 376.262,19.312 381.262,9.6453 385.5,-0.5 Z"/></g>
<g><path style="opacity:1" fill="#337f9c" d="M 357.5,53.5 C 356.071,56.6963 354.405,59.6963 352.5,62.5C 349.271,55.5462 346.938,48.2129 345.5,40.5C 342.567,37.9864 339.234,36.3198 335.5,35.5C 335.5,34.1667 335.5,32.8333 335.5,31.5C 324.803,32.0918 314.136,32.0918 303.5,31.5C 303.5,34.1667 303.5,36.8333 303.5,39.5C 300.833,39.5 298.167,39.5 295.5,39.5C 295.5,40.8333 295.5,42.1667 295.5,43.5C 294.167,43.5 292.833,43.5 291.5,43.5C 291.5,44.8333 291.5,46.1667 291.5,47.5C 290.167,47.5 288.833,47.5 287.5,47.5C 287.5,48.8333 287.5,50.1667 287.5,51.5C 286.167,51.5 284.833,51.5 283.5,51.5C 283.5,52.8333 283.5,54.1667 283.5,55.5C 282.167,55.5 280.833,55.5 279.5,55.5C 279.5,56.8333 279.5,58.1667 279.5,59.5C 278.167,59.5 276.833,59.5 275.5,59.5C 275.5,60.8333 275.5,62.1667 275.5,63.5C 274.167,63.5 272.833,63.5 271.5,63.5C 271.5,66.1667 271.5,68.8333 271.5,71.5C 268.833,71.5 266.167,71.5 263.5,71.5C 263.5,74.1667 263.5,76.8333 263.5,79.5C 262.167,79.5 260.833,79.5 259.5,79.5C 259.5,82.1667 259.5,84.8333 259.5,87.5C 256.084,86.8663 254.084,88.1996 253.5,91.5C 254.655,94.0115 255.322,96.6781 255.5,99.5C 254.167,99.5 252.833,99.5 251.5,99.5C 251.5,100.833 251.5,102.167 251.5,103.5C 250.167,103.5 248.833,103.5 247.5,103.5C 247.5,122.167 247.5,140.833 247.5,159.5C 249.199,159.34 250.866,159.506 252.5,160C 253.376,161.586 254.376,163.086 255.5,164.5C 257.598,164.957 259.264,165.957 260.5,167.5C 259.258,171.655 257.258,175.322 254.5,178.5C 253.141,179.007 252.141,180.007 251.5,181.5C 247.981,180.068 244.314,179.234 240.5,179C 239.707,175.589 239.207,172.089 239,168.5C 237.989,167.663 236.822,167.33 235.5,167.5C 235.5,166.167 235.5,164.833 235.5,163.5C 234.167,163.5 232.833,163.5 231.5,163.5C 231.5,151.5 231.5,139.5 231.5,127.5C 230.167,127.5 228.833,127.5 227.5,127.5C 227.5,124.833 227.5,122.167 227.5,119.5C 228.833,119.5 230.167,119.5 231.5,119.5C 231.687,114.155 232.02,108.822 232.5,103.5C 233.5,103.5 234.5,103.5 235.5,103.5C 235.5,99.5 235.5,95.5 235.5,91.5C 236.833,91.5 238.167,91.5 239.5,91.5C 239.5,90.5 239.5,89.5 239.5,88.5C 240.822,88.67 241.989,88.3366 243,87.5C 243.554,85.3904 244.388,83.3904 245.5,81.5C 244.246,79.6663 243.579,77.6663 243.5,75.5C 244.833,75.5 246.167,75.5 247.5,75.5C 248.021,71.5191 248.354,67.5191 248.5,63.5C 250.833,63.5 253.167,63.5 255.5,63.5C 253.833,56.5 256.5,53.8333 263.5,55.5C 263.337,53.1432 263.503,50.8098 264,48.5C 265.011,47.6634 266.178,47.33 267.5,47.5C 267.5,44.8333 267.5,42.1667 267.5,39.5C 271.5,39.5 275.5,39.5 279.5,39.5C 279.5,35.5 279.5,31.5 279.5,27.5C 280.833,27.5 282.167,27.5 283.5,27.5C 283.5,26.1667 283.5,24.8333 283.5,23.5C 286.272,24.3715 288.938,24.3715 291.5,23.5C 291.5,22.1667 291.5,20.8333 291.5,19.5C 292.833,19.5 294.167,19.5 295.5,19.5C 295.5,20.8333 295.5,22.1667 295.5,23.5C 298.167,23.5 300.833,23.5 303.5,23.5C 303.5,20.8333 303.5,18.1667 303.5,15.5C 313.839,15.3335 324.172,15.5002 334.5,16C 335.167,18.3333 335.833,20.6667 336.5,23C 340.152,23.4986 343.818,23.6653 347.5,23.5C 347.5,26.1667 347.5,28.8333 347.5,31.5C 348.833,31.5 350.167,31.5 351.5,31.5C 351.942,39.2743 353.942,46.6077 357.5,53.5 Z"/></g>
<g><path style="opacity:1" fill="#3386a0" d="M 352.5,62.5 C 352.008,64.8185 351.008,66.8185 349.5,68.5C 349.519,66.9397 349.852,65.4397 350.5,64C 349.048,62.4352 347.381,61.1018 345.5,60C 347.107,58.951 347.773,57.451 347.5,55.5C 346.167,55.5 344.833,55.5 343.5,55.5C 343.5,54.1667 343.5,52.8333 343.5,51.5C 342.167,51.5 340.833,51.5 339.5,51.5C 339.5,50.1667 339.5,48.8333 339.5,47.5C 338.167,47.5 336.833,47.5 335.5,47.5C 335.5,46.1667 335.5,44.8333 335.5,43.5C 330.167,43.5 324.833,43.5 319.5,43.5C 319.5,44.8333 319.5,46.1667 319.5,47.5C 316.833,47.5 314.167,47.5 311.5,47.5C 311.5,48.8333 311.5,50.1667 311.5,51.5C 307.5,51.5 303.5,51.5 299.5,51.5C 299.5,52.8333 299.5,54.1667 299.5,55.5C 298.167,55.5 296.833,55.5 295.5,55.5C 295.5,56.8333 295.5,58.1667 295.5,59.5C 294.167,59.5 292.833,59.5 291.5,59.5C 291.5,60.8333 291.5,62.1667 291.5,63.5C 290.167,63.5 288.833,63.5 287.5,63.5C 287.5,64.8333 287.5,66.1667 287.5,67.5C 286.167,67.5 284.833,67.5 283.5,67.5C 283.5,68.8333 283.5,70.1667 283.5,71.5C 282.167,71.5 280.833,71.5 279.5,71.5C 279.5,72.8333 279.5,74.1667 279.5,75.5C 278.167,75.5 276.833,75.5 275.5,75.5C 275.5,78.1667 275.5,80.8333 275.5,83.5C 274.167,83.5 272.833,83.5 271.5,83.5C 271.5,86.1667 271.5,88.8333 271.5,91.5C 270.167,91.5 268.833,91.5 267.5,91.5C 267.5,95.5 267.5,99.5 267.5,103.5C 266.167,103.5 264.833,103.5 263.5,103.5C 263.5,106.167 263.5,108.833 263.5,111.5C 262.167,111.5 260.833,111.5 259.5,111.5C 259.5,126.167 259.5,140.833 259.5,155.5C 261.199,155.34 262.866,155.506 264.5,156C 263.692,156.308 263.025,156.808 262.5,157.5C 262.92,159.326 262.92,161.326 262.5,163.5C 262.34,165.153 261.674,166.486 260.5,167.5C 259.264,165.957 257.598,164.957 255.5,164.5C 254.376,163.086 253.376,161.586 252.5,160C 250.866,159.506 249.199,159.34 247.5,159.5C 247.5,140.833 247.5,122.167 247.5,103.5C 248.833,103.5 250.167,103.5 251.5,103.5C 251.5,102.167 251.5,100.833 251.5,99.5C 252.833,99.5 254.167,99.5 255.5,99.5C 255.322,96.6781 254.655,94.0115 253.5,91.5C 254.084,88.1996 256.084,86.8663 259.5,87.5C 259.5,84.8333 259.5,82.1667 259.5,79.5C 260.833,79.5 262.167,79.5 263.5,79.5C 263.5,76.8333 263.5,74.1667 263.5,71.5C 266.167,71.5 268.833,71.5 271.5,71.5C 271.5,68.8333 271.5,66.1667 271.5,63.5C 272.833,63.5 274.167,63.5 275.5,63.5C 275.5,62.1667 275.5,60.8333 275.5,59.5C 276.833,59.5 278.167,59.5 279.5,59.5C 279.5,58.1667 279.5,56.8333 279.5,55.5C 280.833,55.5 282.167,55.5 283.5,55.5C 283.5,54.1667 283.5,52.8333 283.5,51.5C 284.833,51.5 286.167,51.5 287.5,51.5C 287.5,50.1667 287.5,48.8333 287.5,47.5C 288.833,47.5 290.167,47.5 291.5,47.5C 291.5,46.1667 291.5,44.8333 291.5,43.5C 292.833,43.5 294.167,43.5 295.5,43.5C 295.5,42.1667 295.5,40.8333 295.5,39.5C 298.167,39.5 300.833,39.5 303.5,39.5C 303.5,36.8333 303.5,34.1667 303.5,31.5C 314.136,32.0918 324.803,32.0918 335.5,31.5C 335.5,32.8333 335.5,34.1667 335.5,35.5C 339.234,36.3198 342.567,37.9864 345.5,40.5C 346.938,48.2129 349.271,55.5462 352.5,62.5 Z"/></g>
<g><path style="opacity:1" fill="#348ca4" d="M 349.5,68.5 C 348.083,71.669 346.417,74.669 344.5,77.5C 344.643,75.7376 344.309,74.0709 343.5,72.5C 348.112,71.5589 348.278,69.5589 344,66.5C 344.201,60.6308 341.368,58.2974 335.5,59.5C 335.5,58.1667 335.5,56.8333 335.5,55.5C 330.125,55.1718 324.792,55.5052 319.5,56.5C 317.01,58.0828 314.343,59.0828 311.5,59.5C 311.5,60.8333 311.5,62.1667 311.5,63.5C 309.143,63.3367 306.81,63.5034 304.5,64C 303.736,66.0693 303.236,68.236 303,70.5C 300.204,71.2113 297.37,71.878 294.5,72.5C 292.967,74.289 291.967,76.289 291.5,78.5C 290.167,78.5 288.833,78.5 287.5,78.5C 287.296,81.5176 286.963,84.5176 286.5,87.5C 284.208,87.2436 282.041,87.5769 280,88.5C 279.501,92.1516 279.335,95.8183 279.5,99.5C 278.167,99.5 276.833,99.5 275.5,99.5C 274.398,106.113 273.732,112.78 273.5,119.5C 271.5,119.5 269.5,119.5 267.5,119.5C 267.334,127.84 267.5,136.173 268,144.5C 268.637,146.303 269.803,147.636 271.5,148.5C 270.68,150.111 269.346,150.778 267.5,150.5C 267.5,151.833 267.5,153.167 267.5,154.5C 266.083,157.669 264.417,160.669 262.5,163.5C 262.92,161.326 262.92,159.326 262.5,157.5C 263.025,156.808 263.692,156.308 264.5,156C 262.866,155.506 261.199,155.34 259.5,155.5C 259.5,140.833 259.5,126.167 259.5,111.5C 260.833,111.5 262.167,111.5 263.5,111.5C 263.5,108.833 263.5,106.167 263.5,103.5C 264.833,103.5 266.167,103.5 267.5,103.5C 267.5,99.5 267.5,95.5 267.5,91.5C 268.833,91.5 270.167,91.5 271.5,91.5C 271.5,88.8333 271.5,86.1667 271.5,83.5C 272.833,83.5 274.167,83.5 275.5,83.5C 275.5,80.8333 275.5,78.1667 275.5,75.5C 276.833,75.5 278.167,75.5 279.5,75.5C 279.5,74.1667 279.5,72.8333 279.5,71.5C 280.833,71.5 282.167,71.5 283.5,71.5C 283.5,70.1667 283.5,68.8333 283.5,67.5C 284.833,67.5 286.167,67.5 287.5,67.5C 287.5,66.1667 287.5,64.8333 287.5,63.5C 288.833,63.5 290.167,63.5 291.5,63.5C 291.5,62.1667 291.5,60.8333 291.5,59.5C 292.833,59.5 294.167,59.5 295.5,59.5C 295.5,58.1667 295.5,56.8333 295.5,55.5C 296.833,55.5 298.167,55.5 299.5,55.5C 299.5,54.1667 299.5,52.8333 299.5,51.5C 303.5,51.5 307.5,51.5 311.5,51.5C 311.5,50.1667 311.5,48.8333 311.5,47.5C 314.167,47.5 316.833,47.5 319.5,47.5C 319.5,46.1667 319.5,44.8333 319.5,43.5C 324.833,43.5 330.167,43.5 335.5,43.5C 335.5,44.8333 335.5,46.1667 335.5,47.5C 336.833,47.5 338.167,47.5 339.5,47.5C 339.5,48.8333 339.5,50.1667 339.5,51.5C 340.833,51.5 342.167,51.5 343.5,51.5C 343.5,52.8333 343.5,54.1667 343.5,55.5C 344.833,55.5 346.167,55.5 347.5,55.5C 347.773,57.451 347.107,58.951 345.5,60C 347.381,61.1018 349.048,62.4352 350.5,64C 349.852,65.4397 349.519,66.9397 349.5,68.5 Z"/></g>
<g><path style="opacity:1" fill="#327394" d="M 275.5,-0.5 C 287.5,-0.5 299.5,-0.5 311.5,-0.5C 311.5,0.833333 311.5,2.16667 311.5,3.5C 308.833,3.5 306.167,3.5 303.5,3.5C 303.5,4.83333 303.5,6.16667 303.5,7.5C 299.5,7.5 295.5,7.5 291.5,7.5C 291.5,8.83333 291.5,10.1667 291.5,11.5C 288.833,11.5 286.167,11.5 283.5,11.5C 283.5,12.8333 283.5,14.1667 283.5,15.5C 282.167,15.5 280.833,15.5 279.5,15.5C 279.5,16.8333 279.5,18.1667 279.5,19.5C 278.167,19.5 276.833,19.5 275.5,19.5C 275.5,20.8333 275.5,22.1667 275.5,23.5C 271.846,23.9422 268.179,24.2756 264.5,24.5C 264.662,26.5273 264.495,28.5273 264,30.5C 262.644,31.3802 261.144,31.7135 259.5,31.5C 259.5,34.1667 259.5,36.8333 259.5,39.5C 258.167,39.5 256.833,39.5 255.5,39.5C 255.5,40.8333 255.5,42.1667 255.5,43.5C 254.167,43.5 252.833,43.5 251.5,43.5C 251.5,44.8333 251.5,46.1667 251.5,47.5C 250.167,47.5 248.833,47.5 247.5,47.5C 247.5,50.1667 247.5,52.8333 247.5,55.5C 246.167,55.5 244.833,55.5 243.5,55.5C 241.959,59.4553 240.626,63.4553 239.5,67.5C 238.167,67.5 236.833,67.5 235.5,67.5C 233.001,72.512 231.668,77.8453 231.5,83.5C 230.167,83.5 228.833,83.5 227.5,83.5C 227.5,86.1667 227.5,88.8333 227.5,91.5C 226.167,91.5 224.833,91.5 223.5,91.5C 223.5,96.8333 223.5,102.167 223.5,107.5C 222.167,107.5 220.833,107.5 219.5,107.5C 219.667,119.505 219.5,131.505 219,143.5C 218.484,148.18 215.984,151.18 211.5,152.5C 206.5,152.5 201.5,152.5 196.5,152.5C 196.5,153.5 196.5,154.5 196.5,155.5C 195.549,154.081 195.216,152.415 195.5,150.5C 199.051,149.725 202.385,148.392 205.5,146.5C 203.545,133.68 202.878,120.68 203.5,107.5C 204.833,107.5 206.167,107.5 207.5,107.5C 207.5,103.5 207.5,99.5 207.5,95.5C 210.167,95.5 212.833,95.5 215.5,95.5C 215.5,92.8333 215.5,90.1667 215.5,87.5C 214.167,87.5 212.833,87.5 211.5,87.5C 211.5,86.1667 211.5,84.8333 211.5,83.5C 212.833,83.5 214.167,83.5 215.5,83.5C 215.5,82.1667 215.5,80.8333 215.5,79.5C 216.833,79.5 218.167,79.5 219.5,79.5C 219.5,78.1667 219.5,76.8333 219.5,75.5C 220.833,75.5 222.167,75.5 223.5,75.5C 223.5,74.1667 223.5,72.8333 223.5,71.5C 222.167,71.5 220.833,71.5 219.5,71.5C 219.5,70.1667 219.5,68.8333 219.5,67.5C 220.833,67.5 222.167,67.5 223.5,67.5C 222.833,64.8333 222.167,62.1667 221.5,59.5C 224.833,59.5 228.167,59.5 231.5,59.5C 231.5,58.1667 231.5,56.8333 231.5,55.5C 230.167,55.5 228.833,55.5 227.5,55.5C 227.5,54.1667 227.5,52.8333 227.5,51.5C 228.833,51.5 230.167,51.5 231.5,51.5C 231.5,50.1667 231.5,48.8333 231.5,47.5C 234.167,47.5 236.833,47.5 239.5,47.5C 239.5,44.8333 239.5,42.1667 239.5,39.5C 240.833,39.5 242.167,39.5 243.5,39.5C 243.5,38.1667 243.5,36.8333 243.5,35.5C 244.833,35.5 246.167,35.5 247.5,35.5C 247.5,34.1667 247.5,32.8333 247.5,31.5C 248.833,31.5 250.167,31.5 251.5,31.5C 251.5,30.1667 251.5,28.8333 251.5,27.5C 252.833,27.5 254.167,27.5 255.5,27.5C 255.5,26.1667 255.5,24.8333 255.5,23.5C 254.167,23.5 252.833,23.5 251.5,23.5C 251.5,22.1667 251.5,20.8333 251.5,19.5C 252.833,19.5 254.167,19.5 255.5,19.5C 255.5,18.1667 255.5,16.8333 255.5,15.5C 256.833,15.5 258.167,15.5 259.5,15.5C 259.5,14.1667 259.5,12.8333 259.5,11.5C 260.833,11.5 262.167,11.5 263.5,11.5C 263.5,12.8333 263.5,14.1667 263.5,15.5C 264.833,15.5 266.167,15.5 267.5,15.5C 267.5,14.1667 267.5,12.8333 267.5,11.5C 268.833,11.5 270.167,11.5 271.5,11.5C 271.5,8.83333 271.5,6.16667 271.5,3.5C 272.833,3.5 274.167,3.5 275.5,3.5C 275.5,2.16667 275.5,0.833333 275.5,-0.5 Z"/></g>
<g><path style="opacity:1" fill="#3392a7" d="M 344.5,77.5 C 343.674,80.4848 342.341,83.1515 340.5,85.5C 340.634,83.7085 340.301,82.0418 339.5,80.5C 339.822,79.1418 339.822,77.4752 339.5,75.5C 335.537,74.5091 331.537,73.5091 327.5,72.5C 331.5,71.8333 335.5,71.1667 339.5,70.5C 337.043,68.9379 334.376,67.9379 331.5,67.5C 327.88,68.5582 324.214,69.3915 320.5,70C 319.594,71.6995 319.261,73.5328 319.5,75.5C 318.167,75.5 316.833,75.5 315.5,75.5C 315.5,76.8333 315.5,78.1667 315.5,79.5C 312.833,79.5 310.167,79.5 307.5,79.5C 307.5,80.8333 307.5,82.1667 307.5,83.5C 306.167,83.5 304.833,83.5 303.5,83.5C 303.5,84.8333 303.5,86.1667 303.5,87.5C 300.093,87.8574 296.926,88.1907 294,88.5C 293.231,91.0991 293.398,93.5991 294.5,96C 293.736,98.0693 293.236,100.236 293,102.5C 290.931,103.264 288.764,103.764 286.5,104C 284.423,108.187 283.423,112.687 283.5,117.5C 284.547,126.482 285.38,135.482 286,144.5C 288.152,146.277 287.985,147.777 285.5,149C 283.833,149.333 282.167,149.667 280.5,150C 282.119,150.236 283.119,151.069 283.5,152.5C 277.865,151.963 272.532,152.63 267.5,154.5C 267.5,153.167 267.5,151.833 267.5,150.5C 269.346,150.778 270.68,150.111 271.5,148.5C 269.803,147.636 268.637,146.303 268,144.5C 267.5,136.173 267.334,127.84 267.5,119.5C 269.5,119.5 271.5,119.5 273.5,119.5C 273.732,112.78 274.398,106.113 275.5,99.5C 276.833,99.5 278.167,99.5 279.5,99.5C 279.335,95.8183 279.501,92.1516 280,88.5C 282.041,87.5769 284.208,87.2436 286.5,87.5C 286.963,84.5176 287.296,81.5176 287.5,78.5C 288.833,78.5 290.167,78.5 291.5,78.5C 291.967,76.289 292.967,74.289 294.5,72.5C 297.37,71.878 300.204,71.2113 303,70.5C 303.236,68.236 303.736,66.0693 304.5,64C 306.81,63.5034 309.143,63.3367 311.5,63.5C 311.5,62.1667 311.5,60.8333 311.5,59.5C 314.343,59.0828 317.01,58.0828 319.5,56.5C 324.792,55.5052 330.125,55.1718 335.5,55.5C 335.5,56.8333 335.5,58.1667 335.5,59.5C 341.368,58.2974 344.201,60.6308 344,66.5C 348.278,69.5589 348.112,71.5589 343.5,72.5C 344.309,74.0709 344.643,75.7376 344.5,77.5 Z"/></g>
<g><path style="opacity:1" fill="#153b6b" d="M 357.5,53.5 C 357.833,53.5 358.167,53.5 358.5,53.5C 358.249,55.1703 357.582,56.6703 356.5,58C 360.938,62.9547 359.938,65.1214 353.5,64.5C 353.846,65.6956 354.346,65.6956 355,64.5C 355.483,65.448 355.649,66.448 355.5,67.5C 354.325,67.281 353.325,67.6143 352.5,68.5C 347.715,71.6553 347.382,75.1553 351.5,79C 355.486,79.4988 359.486,79.6655 363.5,79.5C 362.962,75.6427 363.962,72.3094 366.5,69.5C 367.842,71.0049 369.508,71.6715 371.5,71.5C 371.5,70.1667 371.5,68.8333 371.5,67.5C 378.167,67.5 384.833,67.5 391.5,67.5C 391.5,66.1667 391.5,64.8333 391.5,63.5C 394.167,63.5 396.833,63.5 399.5,63.5C 399.5,70.1667 399.5,76.8333 399.5,83.5C 394.167,83.5 388.833,83.5 383.5,83.5C 383.5,84.8333 383.5,86.1667 383.5,87.5C 376.833,87.5 370.167,87.5 363.5,87.5C 363.5,88.8333 363.5,90.1667 363.5,91.5C 357.285,91.2025 351.285,92.2025 345.5,94.5C 347.891,95.8086 347.891,96.8086 345.5,97.5C 344.328,97.0814 343.328,96.4147 342.5,95.5C 341.742,96.8114 340.742,97.3114 339.5,97C 338.594,95.3005 338.261,93.4672 338.5,91.5C 338.971,89.4214 339.637,87.4214 340.5,85.5C 342.341,83.1515 343.674,80.4848 344.5,77.5C 346.417,74.669 348.083,71.669 349.5,68.5C 351.008,66.8185 352.008,64.8185 352.5,62.5C 354.405,59.6963 356.071,56.6963 357.5,53.5 Z"/></g>
<g><path style="opacity:1" fill="#337997" d="M 311.5,-0.5 C 323.5,-0.5 335.5,-0.5 347.5,-0.5C 347.343,0.873441 347.51,2.20677 348,3.5C 352.684,7.86858 355.517,13.2019 356.5,19.5C 357.5,19.5 358.5,19.5 359.5,19.5C 359.484,27.9858 360.484,35.9858 362.5,43.5C 361.167,46.8333 359.833,50.1667 358.5,53.5C 358.167,53.5 357.833,53.5 357.5,53.5C 353.942,46.6077 351.942,39.2743 351.5,31.5C 350.167,31.5 348.833,31.5 347.5,31.5C 347.5,28.8333 347.5,26.1667 347.5,23.5C 343.818,23.6653 340.152,23.4986 336.5,23C 335.833,20.6667 335.167,18.3333 334.5,16C 324.172,15.5002 313.839,15.3335 303.5,15.5C 303.5,18.1667 303.5,20.8333 303.5,23.5C 300.833,23.5 298.167,23.5 295.5,23.5C 295.5,22.1667 295.5,20.8333 295.5,19.5C 294.167,19.5 292.833,19.5 291.5,19.5C 291.5,20.8333 291.5,22.1667 291.5,23.5C 288.938,24.3715 286.272,24.3715 283.5,23.5C 283.5,24.8333 283.5,26.1667 283.5,27.5C 282.167,27.5 280.833,27.5 279.5,27.5C 279.5,31.5 279.5,35.5 279.5,39.5C 275.5,39.5 271.5,39.5 267.5,39.5C 267.5,42.1667 267.5,44.8333 267.5,47.5C 266.178,47.33 265.011,47.6634 264,48.5C 263.503,50.8098 263.337,53.1432 263.5,55.5C 256.5,53.8333 253.833,56.5 255.5,63.5C 253.167,63.5 250.833,63.5 248.5,63.5C 248.354,67.5191 248.021,71.5191 247.5,75.5C 246.167,75.5 244.833,75.5 243.5,75.5C 243.579,77.6663 244.246,79.6663 245.5,81.5C 244.388,83.3904 243.554,85.3904 243,87.5C 241.989,88.3366 240.822,88.67 239.5,88.5C 239.5,89.5 239.5,90.5 239.5,91.5C 238.167,91.5 236.833,91.5 235.5,91.5C 235.5,95.5 235.5,99.5 235.5,103.5C 234.5,103.5 233.5,103.5 232.5,103.5C 232.02,108.822 231.687,114.155 231.5,119.5C 230.167,119.5 228.833,119.5 227.5,119.5C 227.5,122.167 227.5,124.833 227.5,127.5C 228.833,127.5 230.167,127.5 231.5,127.5C 231.5,139.5 231.5,151.5 231.5,163.5C 232.833,163.5 234.167,163.5 235.5,163.5C 235.5,164.833 235.5,166.167 235.5,167.5C 236.822,167.33 237.989,167.663 239,168.5C 239.207,172.089 239.707,175.589 240.5,179C 244.314,179.234 247.981,180.068 251.5,181.5C 252.141,180.007 253.141,179.007 254.5,178.5C 250.689,187.455 246.356,196.121 241.5,204.5C 240.998,205.521 240.332,205.688 239.5,205C 230.296,187.425 220.963,169.925 211.5,152.5C 215.984,151.18 218.484,148.18 219,143.5C 219.5,131.505 219.667,119.505 219.5,107.5C 220.833,107.5 222.167,107.5 223.5,107.5C 223.5,102.167 223.5,96.8333 223.5,91.5C 224.833,91.5 226.167,91.5 227.5,91.5C 227.5,88.8333 227.5,86.1667 227.5,83.5C 228.833,83.5 230.167,83.5 231.5,83.5C 231.668,77.8453 233.001,72.512 235.5,67.5C 236.833,67.5 238.167,67.5 239.5,67.5C 240.626,63.4553 241.959,59.4553 243.5,55.5C 244.833,55.5 246.167,55.5 247.5,55.5C 247.5,52.8333 247.5,50.1667 247.5,47.5C 248.833,47.5 250.167,47.5 251.5,47.5C 251.5,46.1667 251.5,44.8333 251.5,43.5C 252.833,43.5 254.167,43.5 255.5,43.5C 255.5,42.1667 255.5,40.8333 255.5,39.5C 256.833,39.5 258.167,39.5 259.5,39.5C 259.5,36.8333 259.5,34.1667 259.5,31.5C 261.144,31.7135 262.644,31.3802 264,30.5C 264.495,28.5273 264.662,26.5273 264.5,24.5C 268.179,24.2756 271.846,23.9422 275.5,23.5C 275.5,22.1667 275.5,20.8333 275.5,19.5C 276.833,19.5 278.167,19.5 279.5,19.5C 279.5,18.1667 279.5,16.8333 279.5,15.5C 280.833,15.5 282.167,15.5 283.5,15.5C 283.5,14.1667 283.5,12.8333 283.5,11.5C 286.167,11.5 288.833,11.5 291.5,11.5C 291.5,10.1667 291.5,8.83333 291.5,7.5C 295.5,7.5 299.5,7.5 303.5,7.5C 303.5,6.16667 303.5,4.83333 303.5,3.5C 306.167,3.5 308.833,3.5 311.5,3.5C 311.5,2.16667 311.5,0.833333 311.5,-0.5 Z"/></g>
<g><path style="opacity:1" fill="#30a0b0" d="M 339.5,80.5 C 340.301,82.0418 340.634,83.7085 340.5,85.5C 339.637,87.4214 338.971,89.4214 338.5,91.5C 330.422,104.65 323.088,118.317 316.5,132.5C 314.659,134.849 313.326,137.515 312.5,140.5C 310.167,143.833 307.833,147.167 305.5,150.5C 305.657,149.127 305.49,147.793 305,146.5C 304.333,145.167 303.667,145.167 303,146.5C 302.517,145.552 302.351,144.552 302.5,143.5C 301.5,143.5 300.5,143.5 299.5,143.5C 299.421,141.334 298.754,139.334 297.5,137.5C 299.372,129.306 300.038,120.972 299.5,112.5C 302.91,112.616 304.244,110.95 303.5,107.5C 304.833,107.5 306.167,107.5 307.5,107.5C 307.5,106.167 307.5,104.833 307.5,103.5C 306.167,103.5 304.833,103.5 303.5,103.5C 303.5,101.167 303.5,98.8333 303.5,96.5C 307.192,96.6757 309.192,95.0091 309.5,91.5C 311.5,91.5 313.5,91.5 315.5,91.5C 315.5,90.1667 315.5,88.8333 315.5,87.5C 316.833,87.5 318.167,87.5 319.5,87.5C 319.575,84.7938 319.908,82.1272 320.5,79.5C 326.259,78.7483 331.593,79.7483 336.5,82.5C 337.518,81.8075 338.518,81.1408 339.5,80.5 Z"/></g>
<g><path style="opacity:1" fill="#224f7b" d="M 139.5,-0.5 C 146.167,-0.5 152.833,-0.5 159.5,-0.5C 159.5,3.5 159.5,7.5 159.5,11.5C 158.167,11.5 156.833,11.5 155.5,11.5C 155.5,12.8333 155.5,14.1667 155.5,15.5C 154.167,15.5 152.833,15.5 151.5,15.5C 151.5,19.5 151.5,23.5 151.5,27.5C 150.167,27.5 148.833,27.5 147.5,27.5C 147.5,30.1667 147.5,32.8333 147.5,35.5C 146.167,35.5 144.833,35.5 143.5,35.5C 143.5,36.8333 143.5,38.1667 143.5,39.5C 142.167,39.5 140.833,39.5 139.5,39.5C 139.5,44.8333 139.5,50.1667 139.5,55.5C 138.167,55.5 136.833,55.5 135.5,55.5C 135.5,58.1667 135.5,60.8333 135.5,63.5C 134.167,63.5 132.833,63.5 131.5,63.5C 131.623,66.5879 130.623,69.2546 128.5,71.5C 127.505,76.7921 127.172,82.1254 127.5,87.5C 126.167,87.5 124.833,87.5 123.5,87.5C 123.5,92.8333 123.5,98.1667 123.5,103.5C 122.167,103.5 120.833,103.5 119.5,103.5C 119.666,111.507 119.5,119.507 119,127.5C 117.753,130.329 116.253,132.995 114.5,135.5C 114.167,138.167 113.833,140.833 113.5,143.5C 115.115,155.448 115.782,167.448 115.5,179.5C 116.833,179.5 118.167,179.5 119.5,179.5C 119.334,172.825 119.5,166.158 120,159.5C 120.333,159.833 120.667,160.167 121,160.5C 121.927,169.586 121.427,178.586 119.5,187.5C 119.488,189.881 120.488,191.548 122.5,192.5C 123.167,206.327 123.833,219.994 124.5,233.5C 125.167,233.833 125.833,234.167 126.5,234.5C 135.652,235.494 144.985,235.827 154.5,235.5C 154.611,236.117 154.944,236.617 155.5,237C 151.5,237.333 147.5,237.667 143.5,238C 145.937,239.375 148.603,239.875 151.5,239.5C 151.5,240.833 151.5,242.167 151.5,243.5C 152.833,243.5 154.167,243.5 155.5,243.5C 155.5,244.833 155.5,246.167 155.5,247.5C 156.833,247.5 158.167,247.5 159.5,247.5C 159.5,248.833 159.5,250.167 159.5,251.5C 162.167,251.5 164.833,251.5 167.5,251.5C 167.5,252.833 167.5,254.167 167.5,255.5C 183.5,255.5 199.5,255.5 215.5,255.5C 215.5,254.167 215.5,252.833 215.5,251.5C 216.833,251.5 218.167,251.5 219.5,251.5C 219.5,250.5 219.5,249.5 219.5,248.5C 224.923,248.476 230.257,247.81 235.5,246.5C 235.5,245.5 235.5,244.5 235.5,243.5C 236.833,243.5 238.167,243.5 239.5,243.5C 239.343,242.127 239.51,240.793 240,239.5C 243.764,241.025 245.597,239.692 245.5,235.5C 245.539,234.417 245.873,233.417 246.5,232.5C 254.421,231.353 254.421,230.52 246.5,230C 250.813,228.857 255.146,228.024 259.5,227.5C 259.33,226.178 259.663,225.011 260.5,224C 262.076,223.56 263.41,222.727 264.5,221.5C 265.417,222.127 266.417,222.461 267.5,222.5C 263.071,231.03 258.405,239.363 253.5,247.5C 252.012,244.814 251.345,245.147 251.5,248.5C 250.5,248.5 249.5,248.5 248.5,248.5C 248.5,249.5 248.5,250.5 248.5,251.5C 246.833,251.5 245.167,251.5 243.5,251.5C 243.5,252.833 243.5,254.167 243.5,255.5C 241.08,255.292 238.747,255.626 236.5,256.5C 235.555,259.788 234.888,263.121 234.5,266.5C 232.887,264.73 230.887,263.564 228.5,263C 224.514,262.501 220.514,262.334 216.5,262.5C 216.5,270.833 216.5,279.167 216.5,287.5C 214.554,282.604 213.887,277.271 214.5,271.5C 214.335,268.15 214.502,264.817 215,261.5C 216.338,260.776 216.505,260.11 215.5,259.5C 211.647,261.106 207.647,262.272 203.5,263C 194.173,263.5 184.839,263.666 175.5,263.5C 175.5,264.833 175.5,266.167 175.5,267.5C 174.167,267.5 172.833,267.5 171.5,267.5C 171.5,266.167 171.5,264.833 171.5,263.5C 166.167,263.5 160.833,263.5 155.5,263.5C 155.5,262.167 155.5,260.833 155.5,259.5C 150.167,259.5 144.833,259.5 139.5,259.5C 139.5,258.167 139.5,256.833 139.5,255.5C 136.833,255.5 134.167,255.5 131.5,255.5C 131.5,254.167 131.5,252.833 131.5,251.5C 130.167,251.5 128.833,251.5 127.5,251.5C 127.5,250.167 127.5,248.833 127.5,247.5C 126.167,247.5 124.833,247.5 123.5,247.5C 123.5,246.167 123.5,244.833 123.5,243.5C 122.167,243.5 120.833,243.5 119.5,243.5C 119.5,242.167 119.5,240.833 119.5,239.5C 118.167,239.5 116.833,239.5 115.5,239.5C 115.5,238.167 115.5,236.833 115.5,235.5C 114.167,235.5 112.833,235.5 111.5,235.5C 111.457,232.912 110.457,230.746 108.5,229C 109.451,228.282 109.617,227.449 109,226.5C 108.184,227.823 107.017,228.489 105.5,228.5C 112.436,218.407 113.269,207.74 108,196.5C 105.78,193.979 103.28,191.812 100.5,190C 109.672,181.117 110.838,171.283 104,160.5C 100.572,156.732 96.4052,154.232 91.5,153C 75.1701,152.5 58.8367,152.333 42.5,152.5C 57.0255,151.785 71.6922,151.118 86.5,150.5C 89.5176,150.296 92.5176,149.963 95.5,149.5C 95.5,139.5 95.5,129.5 95.5,119.5C 98.1667,119.5 100.833,119.5 103.5,119.5C 103.5,114.167 103.5,108.833 103.5,103.5C 104.833,103.5 106.167,103.5 107.5,103.5C 107.5,95.5 107.5,87.5 107.5,79.5C 108.833,79.5 110.167,79.5 111.5,79.5C 111.5,72.8333 111.5,66.1667 111.5,59.5C 112.833,59.5 114.167,59.5 115.5,59.5C 115.5,55.5 115.5,51.5 115.5,47.5C 118.167,47.5 120.833,47.5 123.5,47.5C 123.5,46.1667 123.5,44.8333 123.5,43.5C 124.833,43.5 126.167,43.5 127.5,43.5C 127.5,39.5 127.5,35.5 127.5,31.5C 128.833,31.5 130.167,31.5 131.5,31.5C 131.5,28.8333 131.5,26.1667 131.5,23.5C 132.833,23.5 134.167,23.5 135.5,23.5C 135.5,16.8333 135.5,10.1667 135.5,3.5C 136.833,3.5 138.167,3.5 139.5,3.5C 139.5,2.16667 139.5,0.833333 139.5,-0.5 Z"/></g>
<g><path style="opacity:1" fill="#3198ab" d="M 339.5,80.5 C 338.518,81.1408 337.518,81.8075 336.5,82.5C 331.593,79.7483 326.259,78.7483 320.5,79.5C 319.908,82.1272 319.575,84.7938 319.5,87.5C 318.167,87.5 316.833,87.5 315.5,87.5C 315.5,88.8333 315.5,90.1667 315.5,91.5C 313.5,91.5 311.5,91.5 309.5,91.5C 309.192,95.0091 307.192,96.6757 303.5,96.5C 303.5,98.8333 303.5,101.167 303.5,103.5C 304.833,103.5 306.167,103.5 307.5,103.5C 307.5,104.833 307.5,106.167 307.5,107.5C 306.167,107.5 304.833,107.5 303.5,107.5C 304.244,110.95 302.91,112.616 299.5,112.5C 300.038,120.972 299.372,129.306 297.5,137.5C 298.754,139.334 299.421,141.334 299.5,143.5C 300.5,143.5 301.5,143.5 302.5,143.5C 302.351,144.552 302.517,145.552 303,146.5C 303.667,145.167 304.333,145.167 305,146.5C 305.49,147.793 305.657,149.127 305.5,150.5C 303.201,155.76 300.534,160.76 297.5,165.5C 297.082,164.778 296.416,164.278 295.5,164C 292.854,163.503 290.187,163.336 287.5,163.5C 287.5,161.833 287.5,160.167 287.5,158.5C 286.5,158.5 285.5,158.5 284.5,158.5C 284.5,157.5 284.5,156.5 284.5,155.5C 284.737,154.209 284.404,153.209 283.5,152.5C 283.119,151.069 282.119,150.236 280.5,150C 282.167,149.667 283.833,149.333 285.5,149C 287.985,147.777 288.152,146.277 286,144.5C 285.38,135.482 284.547,126.482 283.5,117.5C 283.423,112.687 284.423,108.187 286.5,104C 288.764,103.764 290.931,103.264 293,102.5C 293.236,100.236 293.736,98.0693 294.5,96C 293.398,93.5991 293.231,91.0991 294,88.5C 296.926,88.1907 300.093,87.8574 303.5,87.5C 303.5,86.1667 303.5,84.8333 303.5,83.5C 304.833,83.5 306.167,83.5 307.5,83.5C 307.5,82.1667 307.5,80.8333 307.5,79.5C 310.167,79.5 312.833,79.5 315.5,79.5C 315.5,78.1667 315.5,76.8333 315.5,75.5C 316.833,75.5 318.167,75.5 319.5,75.5C 319.261,73.5328 319.594,71.6995 320.5,70C 324.214,69.3915 327.88,68.5582 331.5,67.5C 334.376,67.9379 337.043,68.9379 339.5,70.5C 335.5,71.1667 331.5,71.8333 327.5,72.5C 331.537,73.5091 335.537,74.5091 339.5,75.5C 339.822,77.4752 339.822,79.1418 339.5,80.5 Z"/></g>
<g><path style="opacity:1" fill="#1f4573" d="M 399.5,83.5 C 399.5,104.833 399.5,126.167 399.5,147.5C 398.167,147.5 396.833,147.5 395.5,147.5C 395.5,146.167 395.5,144.833 395.5,143.5C 394.167,143.5 392.833,143.5 391.5,143.5C 391.5,142.167 391.5,140.833 391.5,139.5C 388.833,139.5 386.167,139.5 383.5,139.5C 383.5,138.167 383.5,136.833 383.5,135.5C 380.833,135.5 378.167,135.5 375.5,135.5C 375.5,134.167 375.5,132.833 375.5,131.5C 362.167,131.5 348.833,131.5 335.5,131.5C 335.5,132.833 335.5,134.167 335.5,135.5C 331.554,135.444 327.721,136.111 324,137.5C 321.674,137.051 319.507,136.217 317.5,135C 316.748,134.329 316.414,133.496 316.5,132.5C 323.088,118.317 330.422,104.65 338.5,91.5C 338.261,93.4672 338.594,95.3005 339.5,97C 340.742,97.3114 341.742,96.8114 342.5,95.5C 343.328,96.4147 344.328,97.0814 345.5,97.5C 347.891,96.8086 347.891,95.8086 345.5,94.5C 351.285,92.2025 357.285,91.2025 363.5,91.5C 363.5,90.1667 363.5,88.8333 363.5,87.5C 370.167,87.5 376.833,87.5 383.5,87.5C 383.5,86.1667 383.5,84.8333 383.5,83.5C 388.833,83.5 394.167,83.5 399.5,83.5 Z"/></g>
<g><path style="opacity:1" fill="#264e7e" d="M 399.5,147.5 C 399.5,231.5 399.5,315.5 399.5,399.5C 372.833,399.5 346.167,399.5 319.5,399.5C 319.5,396.833 319.5,394.167 319.5,391.5C 322.167,391.5 324.833,391.5 327.5,391.5C 327.5,390.167 327.5,388.833 327.5,387.5C 330.167,387.5 332.833,387.5 335.5,387.5C 335.5,386.167 335.5,384.833 335.5,383.5C 338.167,383.5 340.833,383.5 343.5,383.5C 343.5,380.833 343.5,378.167 343.5,375.5C 346.167,375.5 348.833,375.5 351.5,375.5C 351.5,372.833 351.5,370.167 351.5,367.5C 352.833,367.5 354.167,367.5 355.5,367.5C 355.5,366.167 355.5,364.833 355.5,363.5C 356.833,363.5 358.167,363.5 359.5,363.5C 359.5,359.5 359.5,355.5 359.5,351.5C 362.167,351.5 364.833,351.5 367.5,351.5C 367.5,348.833 367.5,346.167 367.5,343.5C 368.833,343.5 370.167,343.5 371.5,343.5C 371.5,340.833 371.5,338.167 371.5,335.5C 372.833,335.5 374.167,335.5 375.5,335.5C 375.5,332.833 375.5,330.167 375.5,327.5C 376.833,327.5 378.167,327.5 379.5,327.5C 379.5,324.833 379.5,322.167 379.5,319.5C 380.833,319.5 382.167,319.5 383.5,319.5C 383.5,314.167 383.5,308.833 383.5,303.5C 386.167,303.5 388.833,303.5 391.5,303.5C 391.5,298.167 391.5,292.833 391.5,287.5C 392.833,287.5 394.167,287.5 395.5,287.5C 395.5,284.833 395.5,282.167 395.5,279.5C 394.167,279.5 392.833,279.5 391.5,279.5C 391.5,274.167 391.5,268.833 391.5,263.5C 392.833,263.5 394.167,263.5 395.5,263.5C 395.5,250.167 395.5,236.833 395.5,223.5C 394.167,223.5 392.833,223.5 391.5,223.5C 391.5,218.167 391.5,212.833 391.5,207.5C 390.167,207.5 388.833,207.5 387.5,207.5C 387.5,204.833 387.5,202.167 387.5,199.5C 386.167,199.5 384.833,199.5 383.5,199.5C 383.5,196.833 383.5,194.167 383.5,191.5C 380.833,191.5 378.167,191.5 375.5,191.5C 375.5,188.833 375.5,186.167 375.5,183.5C 370.167,183.5 364.833,183.5 359.5,183.5C 359.5,178.167 359.5,172.833 359.5,167.5C 356.833,167.5 354.167,167.5 351.5,167.5C 351.5,164.833 351.5,162.167 351.5,159.5C 346.167,159.5 340.833,159.5 335.5,159.5C 335.5,162.5 335.5,165.5 335.5,168.5C 333.61,168.703 332.11,168.037 331,166.5C 330.329,167.252 329.496,167.586 328.5,167.5C 323.846,158.86 319.179,150.194 314.5,141.5C 314.043,140.702 313.376,140.369 312.5,140.5C 313.326,137.515 314.659,134.849 316.5,132.5C 316.414,133.496 316.748,134.329 317.5,135C 319.507,136.217 321.674,137.051 324,137.5C 327.721,136.111 331.554,135.444 335.5,135.5C 335.5,134.167 335.5,132.833 335.5,131.5C 348.833,131.5 362.167,131.5 375.5,131.5C 375.5,132.833 375.5,134.167 375.5,135.5C 378.167,135.5 380.833,135.5 383.5,135.5C 383.5,136.833 383.5,138.167 383.5,139.5C 386.167,139.5 388.833,139.5 391.5,139.5C 391.5,140.833 391.5,142.167 391.5,143.5C 392.833,143.5 394.167,143.5 395.5,143.5C 395.5,144.833 395.5,146.167 395.5,147.5C 396.833,147.5 398.167,147.5 399.5,147.5 Z"/></g>
<g><path style="opacity:1" fill="#f9fbfc" d="M 312.5,140.5 C 313.376,140.369 314.043,140.702 314.5,141.5C 319.179,150.194 323.846,158.86 328.5,167.5C 335.733,181.632 343.233,195.632 351,209.5C 353.694,213.879 355.527,218.546 356.5,223.5C 351.821,223.666 347.155,223.499 342.5,223C 341.364,221.855 340.364,220.688 339.5,219.5C 332.282,204.73 324.782,190.064 317,175.5C 315.732,173.283 314.232,171.283 312.5,169.5C 306.632,179.236 301.299,189.236 296.5,199.5C 292.321,207.352 287.988,215.185 283.5,223C 278.833,223.667 274.167,223.667 269.5,223C 268.944,222.617 268.611,222.117 268.5,221.5C 271.82,214.86 275.153,208.193 278.5,201.5C 281.341,197.151 283.674,192.484 285.5,187.5C 290.005,180.495 294.005,173.161 297.5,165.5C 300.534,160.76 303.201,155.76 305.5,150.5C 307.833,147.167 310.167,143.833 312.5,140.5 Z"/></g>
<g><path style="opacity:1" fill="#f8f9fb" d="M 42.5,152.5 C 58.8367,152.333 75.1701,152.5 91.5,153C 96.4052,154.232 100.572,156.732 104,160.5C 110.838,171.283 109.672,181.117 100.5,190C 103.28,191.812 105.78,193.979 108,196.5C 113.269,207.74 112.436,218.407 105.5,228.5C 101.827,230.996 97.8271,232.829 93.5,234C 76.8657,235.353 60.1991,235.853 43.5,235.5C 43.1667,234.5 42.5,233.833 41.5,233.5C 41.1759,206.426 41.5093,179.426 42.5,152.5 Z"/></g>
<g><path style="opacity:1" fill="#f7f9fb" d="M 125.5,152.5 C 141.503,152.333 157.503,152.5 173.5,153C 177.039,153.679 180.372,154.846 183.5,156.5C 186.951,159.463 189.451,163.13 191,167.5C 193.558,176.757 191.058,184.257 183.5,190C 188.794,193.454 192.794,197.954 195.5,203.5C 197.679,219.675 191.012,229.842 175.5,234C 159.17,234.5 142.837,234.667 126.5,234.5C 125.833,234.167 125.167,233.833 124.5,233.5C 124.176,206.426 124.509,179.426 125.5,152.5 Z"/></g>
<g><path style="opacity:1" fill="#fafdfd" d="M 211.5,152.5 C 220.963,169.925 230.296,187.425 239.5,205C 240.332,205.688 240.998,205.521 241.5,204.5C 246.356,196.121 250.689,187.455 254.5,178.5C 257.258,175.322 259.258,171.655 260.5,167.5C 261.674,166.486 262.34,165.153 262.5,163.5C 264.417,160.669 266.083,157.669 267.5,154.5C 272.532,152.63 277.865,151.963 283.5,152.5C 284.404,153.209 284.737,154.209 284.5,155.5C 276.726,168.046 269.726,181.046 263.5,194.5C 258.595,202.637 253.929,210.97 249.5,219.5C 246.833,224.5 244.167,229.5 241.5,234.5C 240.325,234.719 239.325,234.386 238.5,233.5C 236.835,229.865 234.835,226.531 232.5,223.5C 221.037,200.575 209.037,177.908 196.5,155.5C 196.5,154.5 196.5,153.5 196.5,152.5C 201.5,152.5 206.5,152.5 211.5,152.5 Z"/></g>
<g><path style="opacity:1" fill="#2c5e85" d="M 139.5,164.5 C 149.506,164.334 159.506,164.5 169.5,165C 175.139,165.971 177.805,169.304 177.5,175C 177.805,180.696 175.139,184.029 169.5,185C 159.506,185.5 149.506,185.666 139.5,185.5C 139.5,178.5 139.5,171.5 139.5,164.5 Z"/></g>
<g><path style="opacity:1" fill="#1e4775" d="M 56.5,164.5 C 66.8387,164.334 77.172,164.5 87.5,165C 93.2968,167.76 95.4635,172.26 94,178.5C 92.5,181.333 90.3333,183.5 87.5,185C 77.1667,185.667 66.8333,185.667 56.5,185C 55.1842,178.167 55.1842,171.334 56.5,164.5 Z"/></g>
<g><path style="opacity:1" fill="#285484" d="M 319.5,399.5 C 284.833,399.5 250.167,399.5 215.5,399.5C 215.5,396.833 215.5,394.167 215.5,391.5C 212.833,391.5 210.167,391.5 207.5,391.5C 207.5,388.833 207.5,386.167 207.5,383.5C 206.167,383.5 204.833,383.5 203.5,383.5C 203.5,379.5 203.5,375.5 203.5,371.5C 202.167,371.5 200.833,371.5 199.5,371.5C 198.757,367.577 198.757,363.577 199.5,359.5C 198.5,359.5 197.5,359.5 196.5,359.5C 201.978,347.211 207.978,335.211 214.5,323.5C 215.258,329.928 215.592,336.594 215.5,343.5C 216.833,343.5 218.167,343.5 219.5,343.5C 219.5,346.167 219.5,348.833 219.5,351.5C 220.833,351.5 222.167,351.5 223.5,351.5C 223.5,352.833 223.5,354.167 223.5,355.5C 226.167,355.5 228.833,355.5 231.5,355.5C 231.5,358.167 231.5,360.833 231.5,363.5C 234.167,363.5 236.833,363.5 239.5,363.5C 239.5,364.833 239.5,366.167 239.5,367.5C 252.833,367.5 266.167,367.5 279.5,367.5C 279.5,364.833 279.5,362.167 279.5,359.5C 287.5,359.5 295.5,359.5 303.5,359.5C 303.5,356.833 303.5,354.167 303.5,351.5C 306.167,351.5 308.833,351.5 311.5,351.5C 311.5,348.833 311.5,346.167 311.5,343.5C 314.167,343.5 316.833,343.5 319.5,343.5C 319.5,340.833 319.5,338.167 319.5,335.5C 316.833,335.5 314.167,335.5 311.5,335.5C 311.5,332.833 311.5,330.167 311.5,327.5C 314.167,327.5 316.833,327.5 319.5,327.5C 319.5,324.833 319.5,322.167 319.5,319.5C 324.833,319.5 330.167,319.5 335.5,319.5C 335.5,314.167 335.5,308.833 335.5,303.5C 338.167,303.5 340.833,303.5 343.5,303.5C 343.5,299.167 343.5,294.833 343.5,290.5C 340.833,290.5 338.167,290.5 335.5,290.5C 336.107,287.924 337.274,285.591 339,283.5C 339.122,285.437 339.955,286.77 341.5,287.5C 342.833,287.5 344.167,287.5 345.5,287.5C 345.174,283.116 345.508,278.783 346.5,274.5C 348.747,273.626 351.08,273.292 353.5,273.5C 353.5,278.167 353.5,282.833 353.5,287.5C 354.833,287.5 356.167,287.5 357.5,287.5C 357.5,282.167 357.5,276.833 357.5,271.5C 357.5,270.5 357.5,269.5 357.5,268.5C 354.482,268.665 351.482,268.498 348.5,268C 350.698,261.377 351.698,254.544 351.5,247.5C 352.833,247.5 354.167,247.5 355.5,247.5C 355.5,244.833 355.5,242.167 355.5,239.5C 354.167,239.5 352.833,239.5 351.5,239.5C 351.5,236.167 351.5,232.833 351.5,229.5C 350.022,229.762 348.689,229.429 347.5,228.5C 350.055,227.056 352.721,225.889 355.5,225C 350.833,224.667 346.167,224.333 341.5,224C 339.893,222.951 339.227,221.451 339.5,219.5C 340.364,220.688 341.364,221.855 342.5,223C 347.155,223.499 351.821,223.666 356.5,223.5C 355.527,218.546 353.694,213.879 351,209.5C 343.233,195.632 335.733,181.632 328.5,167.5C 329.496,167.586 330.329,167.252 331,166.5C 332.11,168.037 333.61,168.703 335.5,168.5C 335.5,165.5 335.5,162.5 335.5,159.5C 340.833,159.5 346.167,159.5 351.5,159.5C 351.5,162.167 351.5,164.833 351.5,167.5C 354.167,167.5 356.833,167.5 359.5,167.5C 359.5,172.833 359.5,178.167 359.5,183.5C 364.833,183.5 370.167,183.5 375.5,183.5C 375.5,186.167 375.5,188.833 375.5,191.5C 378.167,191.5 380.833,191.5 383.5,191.5C 383.5,194.167 383.5,196.833 383.5,199.5C 384.833,199.5 386.167,199.5 387.5,199.5C 387.5,202.167 387.5,204.833 387.5,207.5C 388.833,207.5 390.167,207.5 391.5,207.5C 391.5,212.833 391.5,218.167 391.5,223.5C 392.833,223.5 394.167,223.5 395.5,223.5C 395.5,236.833 395.5,250.167 395.5,263.5C 394.167,263.5 392.833,263.5 391.5,263.5C 391.5,268.833 391.5,274.167 391.5,279.5C 392.833,279.5 394.167,279.5 395.5,279.5C 395.5,282.167 395.5,284.833 395.5,287.5C 394.167,287.5 392.833,287.5 391.5,287.5C 391.5,292.833 391.5,298.167 391.5,303.5C 388.833,303.5 386.167,303.5 383.5,303.5C 383.5,308.833 383.5,314.167 383.5,319.5C 382.167,319.5 380.833,319.5 379.5,319.5C 379.5,322.167 379.5,324.833 379.5,327.5C 378.167,327.5 376.833,327.5 375.5,327.5C 375.5,330.167 375.5,332.833 375.5,335.5C 374.167,335.5 372.833,335.5 371.5,335.5C 371.5,338.167 371.5,340.833 371.5,343.5C 370.167,343.5 368.833,343.5 367.5,343.5C 367.5,346.167 367.5,348.833 367.5,351.5C 364.833,351.5 362.167,351.5 359.5,351.5C 359.5,355.5 359.5,359.5 359.5,363.5C 358.167,363.5 356.833,363.5 355.5,363.5C 355.5,364.833 355.5,366.167 355.5,367.5C 354.167,367.5 352.833,367.5 351.5,367.5C 351.5,370.167 351.5,372.833 351.5,375.5C 348.833,375.5 346.167,375.5 343.5,375.5C 343.5,378.167 343.5,380.833 343.5,383.5C 340.833,383.5 338.167,383.5 335.5,383.5C 335.5,384.833 335.5,386.167 335.5,387.5C 332.833,387.5 330.167,387.5 327.5,387.5C 327.5,388.833 327.5,390.167 327.5,391.5C 324.833,391.5 322.167,391.5 319.5,391.5C 319.5,394.167 319.5,396.833 319.5,399.5 Z"/></g>
<g><path style="opacity:1" fill="#37859f" d="M 284.5,155.5 C 284.5,156.5 284.5,157.5 284.5,158.5C 285.5,158.5 286.5,158.5 287.5,158.5C 287.5,160.167 287.5,161.833 287.5,163.5C 290.187,163.336 292.854,163.503 295.5,164C 296.416,164.278 297.082,164.778 297.5,165.5C 294.005,173.161 290.005,180.495 285.5,187.5C 285.657,186.127 285.49,184.793 285,183.5C 284.667,184.167 284.333,184.833 284,185.5C 282.249,183.277 280.082,182.943 277.5,184.5C 274.81,185.741 272.144,186.907 269.5,188C 271.037,189.11 271.703,190.61 271.5,192.5C 268.673,192.584 266.006,193.25 263.5,194.5C 269.726,181.046 276.726,168.046 284.5,155.5 Z"/></g>
<g><path style="opacity:1" fill="#1c4574" d="M 55.5,198.5 C 67.9085,198.061 80.2419,198.561 92.5,200C 94.6667,200.833 96.1667,202.333 97,204.5C 98.0104,209.558 97.5104,214.391 95.5,219C 93.2827,220.275 90.9494,221.275 88.5,222C 77.8333,222.667 67.1667,222.667 56.5,222C 55.5183,214.253 55.185,206.42 55.5,198.5 Z"/></g>
<g><path style="opacity:1" fill="#295a83" d="M 139.5,198.5 C 150.838,198.333 162.172,198.5 173.5,199C 180.955,202.084 183.455,207.584 181,215.5C 179.437,218.728 176.937,220.895 173.5,222C 162.172,222.5 150.838,222.667 139.5,222.5C 139.5,214.5 139.5,206.5 139.5,198.5 Z"/></g>
<g><path style="opacity:1" fill="#357192" d="M 285.5,187.5 C 283.674,192.484 281.341,197.151 278.5,201.5C 278.217,200.711 277.717,200.044 277,199.5C 276.51,200.793 276.343,202.127 276.5,203.5C 270.858,202.908 266.191,204.741 262.5,209C 260.26,209.977 257.927,210.477 255.5,210.5C 254.247,213.12 252.914,215.787 251.5,218.5C 251.043,219.298 250.376,219.631 249.5,219.5C 253.929,210.97 258.595,202.637 263.5,194.5C 266.006,193.25 268.673,192.584 271.5,192.5C 271.703,190.61 271.037,189.11 269.5,188C 272.144,186.907 274.81,185.741 277.5,184.5C 280.082,182.943 282.249,183.277 284,185.5C 284.333,184.833 284.667,184.167 285,183.5C 285.49,184.793 285.657,186.127 285.5,187.5 Z"/></g>
<g><path style="opacity:1" fill="#2c5f86" d="M 278.5,201.5 C 275.153,208.193 271.82,214.86 268.5,221.5C 267.833,221.5 267.5,221.833 267.5,222.5C 266.417,222.461 265.417,222.127 264.5,221.5C 263.41,222.727 262.076,223.56 260.5,224C 259.663,225.011 259.33,226.178 259.5,227.5C 255.146,228.024 250.813,228.857 246.5,230C 254.421,230.52 254.421,231.353 246.5,232.5C 245.873,233.417 245.539,234.417 245.5,235.5C 244.167,235.167 242.833,234.833 241.5,234.5C 244.167,229.5 246.833,224.5 249.5,219.5C 250.376,219.631 251.043,219.298 251.5,218.5C 252.914,215.787 254.247,213.12 255.5,210.5C 257.927,210.477 260.26,209.977 262.5,209C 266.191,204.741 270.858,202.908 276.5,203.5C 276.343,202.127 276.51,200.793 277,199.5C 277.717,200.044 278.217,200.711 278.5,201.5 Z"/></g>
<g><path style="opacity:1" fill="#2f5f87" d="M 232.5,223.5 C 234.835,226.531 236.835,229.865 238.5,233.5C 239.325,234.386 240.325,234.719 241.5,234.5C 238.747,235.394 236.414,237.061 234.5,239.5C 233.784,238.689 232.95,238.022 232,237.5C 228.061,239.374 223.895,240.374 219.5,240.5C 219.5,241.5 219.5,242.5 219.5,243.5C 210.167,243.5 200.833,243.5 191.5,243.5C 191.5,242.167 191.5,240.833 191.5,239.5C 185.797,239.794 180.464,238.627 175.5,236C 168.508,235.5 161.508,235.334 154.5,235.5C 144.985,235.827 135.652,235.494 126.5,234.5C 142.837,234.667 159.17,234.5 175.5,234C 191.012,229.842 197.679,219.675 195.5,203.5C 195.56,202.957 195.893,202.624 196.5,202.5C 197.494,207.456 197.827,212.456 197.5,217.5C 199.5,216.833 201.5,216.167 203.5,215.5C 203.5,216.5 203.5,217.5 203.5,218.5C 207.466,219.162 211.466,219.495 215.5,219.5C 215.5,220.5 215.5,221.5 215.5,222.5C 221.13,223.292 226.797,223.625 232.5,223.5 Z"/></g>
<g><path style="opacity:1" fill="#1b4775" d="M 214.5,271.5 C 211.478,271.069 209.145,272.069 207.5,274.5C 204.914,275.48 202.247,275.813 199.5,275.5C 199.5,276.833 199.5,278.167 199.5,279.5C 192.833,279.5 186.167,279.5 179.5,279.5C 179.5,280.833 179.5,282.167 179.5,283.5C 175.5,283.5 171.5,283.5 167.5,283.5C 167.5,284.833 167.5,286.167 167.5,287.5C 163.5,287.5 159.5,287.5 155.5,287.5C 155.5,286.167 155.5,284.833 155.5,283.5C 151.5,283.5 147.5,283.5 143.5,283.5C 143.5,282.167 143.5,280.833 143.5,279.5C 138.167,279.5 132.833,279.5 127.5,279.5C 127.5,276.833 127.5,274.167 127.5,271.5C 124.833,271.5 122.167,271.5 119.5,271.5C 119.5,274.167 119.5,276.833 119.5,279.5C 116.833,279.5 114.167,279.5 111.5,279.5C 111.5,278.167 111.5,276.833 111.5,275.5C 110.167,275.5 108.833,275.5 107.5,275.5C 107.5,274.167 107.5,272.833 107.5,271.5C 104.833,271.5 102.167,271.5 99.5,271.5C 99.5,270.167 99.5,268.833 99.5,267.5C 98.1667,267.5 96.8333,267.5 95.5,267.5C 95.5,266.167 95.5,264.833 95.5,263.5C 96.8333,263.5 98.1667,263.5 99.5,263.5C 99.5,262.167 99.5,260.833 99.5,259.5C 98.1667,259.5 96.8333,259.5 95.5,259.5C 95.5,258.167 95.5,256.833 95.5,255.5C 94.1667,255.5 92.8333,255.5 91.5,255.5C 91.5,252.833 91.5,250.167 91.5,247.5C 87.5,247.5 83.5,247.5 79.5,247.5C 79.5,244.833 79.5,242.167 79.5,239.5C 78.1266,239.657 76.7932,239.49 75.5,239C 80.4349,237.228 85.4349,237.062 90.5,238.5C 91.5,238 92.5,237.5 93.5,237C 78.1703,236.5 62.837,236.333 47.5,236.5C 45.901,236.768 44.5676,236.434 43.5,235.5C 60.1991,235.853 76.8657,235.353 93.5,234C 97.8271,232.829 101.827,230.996 105.5,228.5C 107.017,228.489 108.184,227.823 109,226.5C 109.617,227.449 109.451,228.282 108.5,229C 110.457,230.746 111.457,232.912 111.5,235.5C 112.833,235.5 114.167,235.5 115.5,235.5C 115.5,236.833 115.5,238.167 115.5,239.5C 116.833,239.5 118.167,239.5 119.5,239.5C 119.5,240.833 119.5,242.167 119.5,243.5C 120.833,243.5 122.167,243.5 123.5,243.5C 123.5,244.833 123.5,246.167 123.5,247.5C 124.833,247.5 126.167,247.5 127.5,247.5C 127.5,248.833 127.5,250.167 127.5,251.5C 128.833,251.5 130.167,251.5 131.5,251.5C 131.5,252.833 131.5,254.167 131.5,255.5C 134.167,255.5 136.833,255.5 139.5,255.5C 139.5,256.833 139.5,258.167 139.5,259.5C 144.833,259.5 150.167,259.5 155.5,259.5C 155.5,260.833 155.5,262.167 155.5,263.5C 160.833,263.5 166.167,263.5 171.5,263.5C 171.5,264.833 171.5,266.167 171.5,267.5C 172.833,267.5 174.167,267.5 175.5,267.5C 175.5,266.167 175.5,264.833 175.5,263.5C 184.839,263.666 194.173,263.5 203.5,263C 207.647,262.272 211.647,261.106 215.5,259.5C 216.505,260.11 216.338,260.776 215,261.5C 214.502,264.817 214.335,268.15 214.5,271.5 Z"/></g>
<g><path style="opacity:1" fill="#164071" d="M 47.5,236.5 C 62.837,236.333 78.1703,236.5 93.5,237C 92.5,237.5 91.5,238 90.5,238.5C 85.4349,237.062 80.4349,237.228 75.5,239C 76.7932,239.49 78.1266,239.657 79.5,239.5C 79.5,242.167 79.5,244.833 79.5,247.5C 83.5,247.5 87.5,247.5 91.5,247.5C 91.5,250.167 91.5,252.833 91.5,255.5C 92.8333,255.5 94.1667,255.5 95.5,255.5C 95.5,256.833 95.5,258.167 95.5,259.5C 96.8333,259.5 98.1667,259.5 99.5,259.5C 99.5,260.833 99.5,262.167 99.5,263.5C 98.1667,263.5 96.8333,263.5 95.5,263.5C 95.5,264.833 95.5,266.167 95.5,267.5C 96.8333,267.5 98.1667,267.5 99.5,267.5C 99.5,268.833 99.5,270.167 99.5,271.5C 102.167,271.5 104.833,271.5 107.5,271.5C 107.5,272.833 107.5,274.167 107.5,275.5C 108.833,275.5 110.167,275.5 111.5,275.5C 111.5,276.833 111.5,278.167 111.5,279.5C 114.167,279.5 116.833,279.5 119.5,279.5C 119.5,276.833 119.5,274.167 119.5,271.5C 122.167,271.5 124.833,271.5 127.5,271.5C 127.5,274.167 127.5,276.833 127.5,279.5C 132.833,279.5 138.167,279.5 143.5,279.5C 143.5,280.833 143.5,282.167 143.5,283.5C 147.5,283.5 151.5,283.5 155.5,283.5C 155.5,284.833 155.5,286.167 155.5,287.5C 159.5,287.5 163.5,287.5 167.5,287.5C 167.5,286.167 167.5,284.833 167.5,283.5C 171.5,283.5 175.5,283.5 179.5,283.5C 179.5,282.167 179.5,280.833 179.5,279.5C 186.167,279.5 192.833,279.5 199.5,279.5C 199.5,278.167 199.5,276.833 199.5,275.5C 202.247,275.813 204.914,275.48 207.5,274.5C 209.145,272.069 211.478,271.069 214.5,271.5C 213.887,277.271 214.554,282.604 216.5,287.5C 217.833,287.5 219.167,287.5 220.5,287.5C 220.5,284.167 220.5,280.833 220.5,277.5C 225.052,277.551 227.719,279.884 228.5,284.5C 225.911,283.352 224.245,281.352 223.5,278.5C 222.796,281.704 222.13,284.871 221.5,288C 216.629,288.551 211.962,289.718 207.5,291.5C 207.5,292.833 207.5,294.167 207.5,295.5C 204.833,295.5 202.167,295.5 199.5,295.5C 199.5,296.833 199.5,298.167 199.5,299.5C 198.167,299.5 196.833,299.5 195.5,299.5C 195.5,296.833 195.5,294.167 195.5,291.5C 194.167,291.5 192.833,291.5 191.5,291.5C 191.5,292.833 191.5,294.167 191.5,295.5C 190.167,295.5 188.833,295.5 187.5,295.5C 187.5,296.833 187.5,298.167 187.5,299.5C 183.5,299.5 179.5,299.5 175.5,299.5C 175.5,300.833 175.5,302.167 175.5,303.5C 176.833,303.5 178.167,303.5 179.5,303.5C 179.5,304.833 179.5,306.167 179.5,307.5C 175.5,307.5 171.5,307.5 167.5,307.5C 167.5,306.167 167.5,304.833 167.5,303.5C 164.833,303.5 162.167,303.5 159.5,303.5C 146.167,303.5 132.833,303.5 119.5,303.5C 119.5,302.167 119.5,300.833 119.5,299.5C 114.167,299.5 108.833,299.5 103.5,299.5C 103.5,298.167 103.5,296.833 103.5,295.5C 98.1667,295.5 92.8333,295.5 87.5,295.5C 87.5,292.833 87.5,290.167 87.5,287.5C 84.8333,287.5 82.1667,287.5 79.5,287.5C 79.5,286.167 79.5,284.833 79.5,283.5C 78.1667,283.5 76.8333,283.5 75.5,283.5C 75.5,280.833 75.5,278.167 75.5,275.5C 72.8333,275.5 70.1667,275.5 67.5,275.5C 67.5,274.167 67.5,272.833 67.5,271.5C 64.8333,271.5 62.1667,271.5 59.5,271.5C 59.5,268.833 59.5,266.167 59.5,263.5C 58.1667,263.5 56.8333,263.5 55.5,263.5C 55.5,260.833 55.5,258.167 55.5,255.5C 54.1667,255.5 52.8333,255.5 51.5,255.5C 51.5,252.833 51.5,250.167 51.5,247.5C 50.1667,247.5 48.8333,247.5 47.5,247.5C 47.5,244.833 47.5,242.167 47.5,239.5C 50.1873,239.664 52.854,239.497 55.5,239C 52.3248,239.053 49.6581,238.22 47.5,236.5 Z"/></g>
<g><path style="opacity:1" fill="#24547f" d="M 241.5,234.5 C 242.833,234.833 244.167,235.167 245.5,235.5C 245.597,239.692 243.764,241.025 240,239.5C 239.51,240.793 239.343,242.127 239.5,243.5C 238.167,243.5 236.833,243.5 235.5,243.5C 235.5,244.5 235.5,245.5 235.5,246.5C 230.257,247.81 224.923,248.476 219.5,248.5C 219.5,249.5 219.5,250.5 219.5,251.5C 218.167,251.5 216.833,251.5 215.5,251.5C 215.5,252.833 215.5,254.167 215.5,255.5C 199.5,255.5 183.5,255.5 167.5,255.5C 167.5,254.167 167.5,252.833 167.5,251.5C 164.833,251.5 162.167,251.5 159.5,251.5C 159.5,250.167 159.5,248.833 159.5,247.5C 158.167,247.5 156.833,247.5 155.5,247.5C 155.5,246.167 155.5,244.833 155.5,243.5C 154.167,243.5 152.833,243.5 151.5,243.5C 151.5,242.167 151.5,240.833 151.5,239.5C 148.603,239.875 145.937,239.375 143.5,238C 147.5,237.667 151.5,237.333 155.5,237C 154.944,236.617 154.611,236.117 154.5,235.5C 161.508,235.334 168.508,235.5 175.5,236C 180.464,238.627 185.797,239.794 191.5,239.5C 191.5,240.833 191.5,242.167 191.5,243.5C 200.833,243.5 210.167,243.5 219.5,243.5C 219.5,242.5 219.5,241.5 219.5,240.5C 223.895,240.374 228.061,239.374 232,237.5C 232.95,238.022 233.784,238.689 234.5,239.5C 236.414,237.061 238.747,235.394 241.5,234.5 Z"/></g>
<g><path style="opacity:1" fill="#133f6f" d="M 253.5,247.5 C 250.343,255.148 246.676,262.481 242.5,269.5C 237.354,271.792 235.354,275.792 236.5,281.5C 235.728,282.694 234.728,283.694 233.5,284.5C 232.431,282.031 231.098,279.698 229.5,277.5C 233.593,274.978 235.26,271.311 234.5,266.5C 234.888,263.121 235.555,259.788 236.5,256.5C 238.747,255.626 241.08,255.292 243.5,255.5C 243.5,254.167 243.5,252.833 243.5,251.5C 245.167,251.5 246.833,251.5 248.5,251.5C 248.5,250.5 248.5,249.5 248.5,248.5C 249.5,248.5 250.5,248.5 251.5,248.5C 251.345,245.147 252.012,244.814 253.5,247.5 Z"/></g>
<g><path style="opacity:1" fill="#30c7cc" d="M 234.5,266.5 C 235.26,271.311 233.593,274.978 229.5,277.5C 231.098,279.698 232.431,282.031 233.5,284.5C 235.129,286.196 234.796,287.196 232.5,287.5C 230.57,287.229 229.236,286.229 228.5,284.5C 227.719,279.884 225.052,277.551 220.5,277.5C 220.5,280.833 220.5,284.167 220.5,287.5C 219.167,287.5 217.833,287.5 216.5,287.5C 216.5,279.167 216.5,270.833 216.5,262.5C 220.514,262.334 224.514,262.501 228.5,263C 230.887,263.564 232.887,264.73 234.5,266.5 Z"/></g>
<g><path style="opacity:1" fill="#0f466e" d="M 220.5,266.5 C 223.187,266.336 225.854,266.503 228.5,267C 230.602,268.733 230.935,270.733 229.5,273C 226.518,273.498 223.518,273.665 220.5,273.5C 220.5,271.167 220.5,268.833 220.5,266.5 Z"/></g>
<g><path style="opacity:1" fill="#32c7ce" d="M 357.5,271.5 C 357.5,276.833 357.5,282.167 357.5,287.5C 356.167,287.5 354.833,287.5 353.5,287.5C 353.5,282.833 353.5,278.167 353.5,273.5C 351.08,273.292 348.747,273.626 346.5,274.5C 345.508,278.783 345.174,283.116 345.5,287.5C 344.167,287.5 342.833,287.5 341.5,287.5C 341.5,279.167 341.5,270.833 341.5,262.5C 342.833,262.5 344.167,262.5 345.5,262.5C 345.183,265.572 345.516,268.572 346.5,271.5C 350.129,268.933 353.796,268.933 357.5,271.5 Z"/></g>
<g><path style="opacity:1" fill="#28598b" d="M 339.5,219.5 C 339.227,221.451 339.893,222.951 341.5,224C 346.167,224.333 350.833,224.667 355.5,225C 352.721,225.889 350.055,227.056 347.5,228.5C 348.689,229.429 350.022,229.762 351.5,229.5C 351.5,232.833 351.5,236.167 351.5,239.5C 352.833,239.5 354.167,239.5 355.5,239.5C 355.5,242.167 355.5,244.833 355.5,247.5C 354.167,247.5 352.833,247.5 351.5,247.5C 351.698,254.544 350.698,261.377 348.5,268C 351.482,268.498 354.482,268.665 357.5,268.5C 357.5,269.5 357.5,270.5 357.5,271.5C 353.796,268.933 350.129,268.933 346.5,271.5C 345.516,268.572 345.183,265.572 345.5,262.5C 344.167,262.5 342.833,262.5 341.5,262.5C 341.5,270.833 341.5,279.167 341.5,287.5C 339.955,286.77 339.122,285.437 339,283.5C 337.274,285.591 336.107,287.924 335.5,290.5C 338.167,290.5 340.833,290.5 343.5,290.5C 343.5,294.833 343.5,299.167 343.5,303.5C 340.833,303.5 338.167,303.5 335.5,303.5C 335.5,308.833 335.5,314.167 335.5,319.5C 330.167,319.5 324.833,319.5 319.5,319.5C 319.5,322.167 319.5,324.833 319.5,327.5C 316.833,327.5 314.167,327.5 311.5,327.5C 311.5,330.167 311.5,332.833 311.5,335.5C 314.167,335.5 316.833,335.5 319.5,335.5C 319.5,338.167 319.5,340.833 319.5,343.5C 316.833,343.5 314.167,343.5 311.5,343.5C 311.5,346.167 311.5,348.833 311.5,351.5C 308.833,351.5 306.167,351.5 303.5,351.5C 303.5,354.167 303.5,356.833 303.5,359.5C 295.5,359.5 287.5,359.5 279.5,359.5C 279.5,362.167 279.5,364.833 279.5,367.5C 266.167,367.5 252.833,367.5 239.5,367.5C 239.5,366.167 239.5,364.833 239.5,363.5C 236.833,363.5 234.167,363.5 231.5,363.5C 231.5,360.833 231.5,358.167 231.5,355.5C 228.833,355.5 226.167,355.5 223.5,355.5C 223.5,354.167 223.5,352.833 223.5,351.5C 222.167,351.5 220.833,351.5 219.5,351.5C 219.5,348.833 219.5,346.167 219.5,343.5C 218.167,343.5 216.833,343.5 215.5,343.5C 215.592,336.594 215.258,329.928 214.5,323.5C 217.981,315.87 221.981,308.537 226.5,301.5C 226.33,302.822 226.663,303.989 227.5,305C 226,305.833 224.833,307 224,308.5C 222.917,314.29 220.751,319.623 217.5,324.5C 224.62,326.973 231.953,327.973 239.5,327.5C 239.5,330.167 239.5,332.833 239.5,335.5C 242.167,335.5 244.833,335.5 247.5,335.5C 247.5,332.833 247.5,330.167 247.5,327.5C 255.5,327.5 263.5,327.5 271.5,327.5C 271.5,324.833 271.5,322.167 271.5,319.5C 276.833,319.5 282.167,319.5 287.5,319.5C 287.5,314.167 287.5,308.833 287.5,303.5C 290.167,303.5 292.833,303.5 295.5,303.5C 295.5,300.833 295.5,298.167 295.5,295.5C 300.833,295.5 306.167,295.5 311.5,295.5C 311.5,293.5 311.5,291.5 311.5,289.5C 312.873,289.657 314.207,289.49 315.5,289C 313.527,288.505 311.527,288.338 309.5,288.5C 309.5,281.833 309.5,275.167 309.5,268.5C 313.555,268.824 317.555,268.491 321.5,267.5C 318.614,267.29 315.614,267.123 312.5,267C 311.643,266.311 310.977,265.478 310.5,264.5C 311.482,250.883 311.815,237.216 311.5,223.5C 308.833,223.5 306.167,223.5 303.5,223.5C 303.5,216.167 303.5,208.833 303.5,201.5C 301.856,201.286 300.356,201.62 299,202.5C 299.195,200.874 299.195,199.207 299,197.5C 298.292,198.381 297.458,199.047 296.5,199.5C 301.299,189.236 306.632,179.236 312.5,169.5C 314.232,171.283 315.732,173.283 317,175.5C 324.782,190.064 332.282,204.73 339.5,219.5 Z"/></g>
<g><path style="opacity:1" fill="#34c4cc" d="M 310.5,269.5 C 311.833,269.5 313.167,269.5 314.5,269.5C 314.443,273.133 315.443,273.3 317.5,270C 318.793,269.51 320.127,269.343 321.5,269.5C 321.5,270.833 321.5,272.167 321.5,273.5C 318.956,273.104 316.789,273.771 315,275.5C 314.501,279.486 314.334,283.486 314.5,287.5C 313.167,287.5 311.833,287.5 310.5,287.5C 310.5,281.5 310.5,275.5 310.5,269.5 Z"/></g>
<g><path style="opacity:1" fill="#33c4cd" d="M 327.5,269.5 C 331.849,268.577 335.183,269.91 337.5,273.5C 337.167,274.5 336.5,275.167 335.5,275.5C 328.712,271.783 325.879,273.783 327,281.5C 329.741,285.462 332.574,285.462 335.5,281.5C 338.14,283.622 337.806,285.456 334.5,287C 324.888,288.383 321.054,284.216 323,274.5C 324.193,272.503 325.693,270.836 327.5,269.5 Z"/></g>
<g><path style="opacity:1" fill="#31c4cc" d="M 242.5,269.5 C 249.786,268.962 253.452,272.295 253.5,279.5C 249.116,279.174 244.783,279.508 240.5,280.5C 243.119,285.17 246.619,285.837 251,282.5C 253.021,284.651 252.521,286.151 249.5,287C 243.236,289.045 238.903,287.211 236.5,281.5C 235.354,275.792 237.354,271.792 242.5,269.5 Z"/></g>
<g><path style="opacity:1" fill="#126793" d="M 241.5,273.5 C 243.857,273.337 246.19,273.503 248.5,274C 248.957,274.414 249.291,274.914 249.5,275.5C 246.5,276.833 243.5,276.833 240.5,275.5C 240.863,274.817 241.196,274.15 241.5,273.5 Z"/></g>
<g><path style="opacity:1" fill="#103669" d="M 228.5,284.5 C 229.236,286.229 230.57,287.229 232.5,287.5C 230.5,292.167 228.5,296.833 226.5,301.5C 221.981,308.537 217.981,315.87 214.5,323.5C 207.978,335.211 201.978,347.211 196.5,359.5C 195.504,359.414 194.671,359.748 194,360.5C 193.282,364.88 191.282,368.546 188,371.5C 184.935,379.918 180.935,387.918 176,395.5C 175.51,396.793 175.343,398.127 175.5,399.5C 116.833,399.5 58.1667,399.5 -0.5,399.5C -0.5,362.167 -0.5,324.833 -0.5,287.5C 0.833333,287.5 2.16667,287.5 3.5,287.5C 3.5,290.167 3.5,292.833 3.5,295.5C 6.16667,295.5 8.83333,295.5 11.5,295.5C 11.5,298.167 11.5,300.833 11.5,303.5C 12.8333,303.5 14.1667,303.5 15.5,303.5C 15.5,306.167 15.5,308.833 15.5,311.5C 18.1667,311.5 20.8333,311.5 23.5,311.5C 23.5,314.167 23.5,316.833 23.5,319.5C 26.1667,319.5 28.8333,319.5 31.5,319.5C 31.5,320.833 31.5,322.167 31.5,323.5C 32.8333,323.5 34.1667,323.5 35.5,323.5C 35.5,324.833 35.5,326.167 35.5,327.5C 38.1667,327.5 40.8333,327.5 43.5,327.5C 43.5,328.833 43.5,330.167 43.5,331.5C 46.1667,331.5 48.8333,331.5 51.5,331.5C 51.5,332.833 51.5,334.167 51.5,335.5C 55.5,335.5 59.5,335.5 63.5,335.5C 63.5,336.833 63.5,338.167 63.5,339.5C 84.8333,339.5 106.167,339.5 127.5,339.5C 127.5,336.833 127.5,334.167 127.5,331.5C 132.833,331.5 138.167,331.5 143.5,331.5C 143.5,330.167 143.5,328.833 143.5,327.5C 150.167,327.5 156.833,327.5 163.5,327.5C 163.5,326.167 163.5,324.833 163.5,323.5C 167.5,323.5 171.5,323.5 175.5,323.5C 175.5,322.167 175.5,320.833 175.5,319.5C 176.833,319.5 178.167,319.5 179.5,319.5C 179.5,318.167 179.5,316.833 179.5,315.5C 182.167,315.5 184.833,315.5 187.5,315.5C 187.5,314.167 187.5,312.833 187.5,311.5C 188.833,311.5 190.167,311.5 191.5,311.5C 191.5,308.833 191.5,306.167 191.5,303.5C 192.833,303.5 194.167,303.5 195.5,303.5C 195.5,302.167 195.5,300.833 195.5,299.5C 196.833,299.5 198.167,299.5 199.5,299.5C 199.5,298.167 199.5,296.833 199.5,295.5C 202.167,295.5 204.833,295.5 207.5,295.5C 207.5,294.167 207.5,292.833 207.5,291.5C 211.962,289.718 216.629,288.551 221.5,288C 222.13,284.871 222.796,281.704 223.5,278.5C 224.245,281.352 225.911,283.352 228.5,284.5 Z"/></g>
<g><path style="opacity:1" fill="#245d93" d="M 226.5,301.5 C 228.5,296.833 230.5,292.167 232.5,287.5C 234.796,287.196 235.129,286.196 233.5,284.5C 234.728,283.694 235.728,282.694 236.5,281.5C 238.903,287.211 243.236,289.045 249.5,287C 252.521,286.151 253.021,284.651 251,282.5C 246.619,285.837 243.119,285.17 240.5,280.5C 244.783,279.508 249.116,279.174 253.5,279.5C 253.452,272.295 249.786,268.962 242.5,269.5C 246.676,262.481 250.343,255.148 253.5,247.5C 258.405,239.363 263.071,231.03 267.5,222.5C 267.5,221.833 267.833,221.5 268.5,221.5C 268.611,222.117 268.944,222.617 269.5,223C 274.167,223.667 278.833,223.667 283.5,223C 287.988,215.185 292.321,207.352 296.5,199.5C 297.458,199.047 298.292,198.381 299,197.5C 299.195,199.207 299.195,200.874 299,202.5C 300.356,201.62 301.856,201.286 303.5,201.5C 303.5,208.833 303.5,216.167 303.5,223.5C 306.167,223.5 308.833,223.5 311.5,223.5C 311.815,237.216 311.482,250.883 310.5,264.5C 310.977,265.478 311.643,266.311 312.5,267C 315.614,267.123 318.614,267.29 321.5,267.5C 317.555,268.491 313.555,268.824 309.5,268.5C 309.5,275.167 309.5,281.833 309.5,288.5C 311.527,288.338 313.527,288.505 315.5,289C 314.207,289.49 312.873,289.657 311.5,289.5C 311.5,291.5 311.5,293.5 311.5,295.5C 306.167,295.5 300.833,295.5 295.5,295.5C 295.5,298.167 295.5,300.833 295.5,303.5C 292.833,303.5 290.167,303.5 287.5,303.5C 287.5,308.833 287.5,314.167 287.5,319.5C 282.167,319.5 276.833,319.5 271.5,319.5C 271.5,322.167 271.5,324.833 271.5,327.5C 263.5,327.5 255.5,327.5 247.5,327.5C 247.5,330.167 247.5,332.833 247.5,335.5C 244.833,335.5 242.167,335.5 239.5,335.5C 239.5,332.833 239.5,330.167 239.5,327.5C 231.953,327.973 224.62,326.973 217.5,324.5C 220.751,319.623 222.917,314.29 224,308.5C 224.833,307 226,305.833 227.5,305C 226.663,303.989 226.33,302.822 226.5,301.5 Z"/></g>
<g><path style="opacity:1" fill="#36c7ce" d="M 294.5,269.5 C 298.839,268.846 302.673,269.846 306,272.5C 306.499,277.489 306.666,282.489 306.5,287.5C 304.549,287.773 303.049,287.107 302,285.5C 298.232,287.975 294.565,287.975 291,285.5C 289.959,282.364 290.793,279.864 293.5,278C 296.466,276.734 299.466,275.567 302.5,274.5C 301.829,273.054 300.662,272.388 299,272.5C 296.783,273.218 294.616,273.718 292.5,274C 292.043,273.586 291.709,273.086 291.5,272.5C 292.77,271.712 293.77,270.712 294.5,269.5 Z"/></g>
<g><path style="opacity:1" fill="#26618d" d="M 298.5,278.5 C 299.833,278.5 301.167,278.5 302.5,278.5C 303.041,282.295 301.375,284.295 297.5,284.5C 296,284.547 295,283.881 294.5,282.5C 295.549,280.784 296.882,279.451 298.5,278.5 Z"/></g>
<g><path style="opacity:1" fill="#33c6ce" d="M 277.5,269.5 C 285.163,268.643 289.163,271.976 289.5,279.5C 285.116,279.174 280.783,279.508 276.5,280.5C 279.191,285.001 282.691,285.668 287,282.5C 289.021,284.651 288.521,286.151 285.5,287C 277.336,289.5 273.003,286.5 272.5,278C 272.525,274.105 274.192,271.272 277.5,269.5 Z"/></g>
<g><path style="opacity:1" fill="#2fc2ca" d="M 258.5,269.5 C 261.187,269.336 263.854,269.503 266.5,270C 269.079,271.612 269.079,273.112 266.5,274.5C 264.161,273.276 261.828,273.276 259.5,274.5C 262.63,276.091 265.797,277.757 269,279.5C 270.271,283.166 269.104,285.666 265.5,287C 262.084,287.893 258.917,287.393 256,285.5C 255.251,284.365 255.417,283.365 256.5,282.5C 259.691,284.968 262.691,284.968 265.5,282.5C 262.37,280.909 259.203,279.243 256,277.5C 255.023,274.183 255.856,271.516 258.5,269.5 Z"/></g>
<g><path style="opacity:1" fill="#13688e" d="M 278.5,272.5 C 281.596,271.907 283.929,272.907 285.5,275.5C 282.5,276.833 279.5,276.833 276.5,275.5C 277.193,274.482 277.859,273.482 278.5,272.5 Z"/></g>
<g><path style="opacity:1" fill="#214876" d="M 196.5,359.5 C 197.5,359.5 198.5,359.5 199.5,359.5C 198.757,363.577 198.757,367.577 199.5,371.5C 200.833,371.5 202.167,371.5 203.5,371.5C 203.5,375.5 203.5,379.5 203.5,383.5C 204.833,383.5 206.167,383.5 207.5,383.5C 207.5,386.167 207.5,388.833 207.5,391.5C 210.167,391.5 212.833,391.5 215.5,391.5C 215.5,394.167 215.5,396.833 215.5,399.5C 202.167,399.5 188.833,399.5 175.5,399.5C 175.343,398.127 175.51,396.793 176,395.5C 180.935,387.918 184.935,379.918 188,371.5C 191.282,368.546 193.282,364.88 194,360.5C 194.671,359.748 195.504,359.414 196.5,359.5 Z"/></g>
</svg>
